<svg xmlns="http://www.w3.org/2000/svg" xmlns:xlink="http://www.w3.org/1999/xlink" width="414" height="824" viewBox="0 0 414 824">
  <defs>
    <clipPath id="clip-path">
      <rect width="372" height="535" fill="none"/>
    </clipPath>
    <filter id="Sugandha_Store" x="124" y="84" width="205" height="48" filterUnits="userSpaceOnUse">
      <feOffset dy="3" input="SourceAlpha"/>
      <feGaussianBlur stdDeviation="3" result="blur"/>
      <feFlood flood-opacity="0.161"/>
      <feComposite operator="in" in2="blur"/>
      <feComposite in="SourceGraphic"/>
    </filter>
    <linearGradient id="linear-gradient" x1="0.5" y1="1.076" x2="0.5" y2="-0.159" gradientUnits="objectBoundingBox">
      <stop offset="0.054" stop-color="#2f0000"/>
      <stop offset="0.191" stop-color="#3f0000"/>
      <stop offset="0.286" stop-color="#450001"/>
      <stop offset="0.421" stop-color="#570204"/>
      <stop offset="0.579" stop-color="#75060a"/>
      <stop offset="0.754" stop-color="#9f0b13"/>
      <stop offset="0.941" stop-color="#d4111d"/>
      <stop offset="1" stop-color="#e71421"/>
    </linearGradient>
    <linearGradient id="linear-gradient-2" x1="0.5" y1="1.071" x2="0.5" y2="-0.1" xlink:href="#linear-gradient"/>
    <linearGradient id="linear-gradient-3" y1="0.5" x2="1" y2="0.5" gradientUnits="objectBoundingBox">
      <stop offset="0.006" stop-color="#1d1917"/>
      <stop offset="0.556" stop-color="#0e0c0b"/>
      <stop offset="1"/>
    </linearGradient>
    <linearGradient id="linear-gradient-5" y1="0.5" x2="1" y2="0.5" gradientUnits="objectBoundingBox">
      <stop offset="0" stop-color="#818386"/>
      <stop offset="0.129" stop-color="#87898c"/>
      <stop offset="0.308" stop-color="#999b9e"/>
      <stop offset="0.516" stop-color="#b6b8bb"/>
      <stop offset="0.612" stop-color="#c7c9cb"/>
    </linearGradient>
    <clipPath id="clip-Cart">
      <rect width="414" height="824"/>
    </clipPath>
  </defs>
  <g id="Cart" clip-path="url(#clip-Cart)">
    <rect width="414" height="824" fill="#fff"/>
    <g id="Content" transform="translate(21 247)" clip-path="url(#clip-path)">
      <g id="Content-2" data-name="Content" transform="translate(-16 -74)">
        <g id="Cart_Item_1" data-name="Cart Item 1" transform="translate(16 74)">
          <rect id="BG" width="374" height="42" rx="4" fill="none"/>
          <g id="Counter" transform="translate(219.334 9)">
            <rect id="BG-2" data-name="BG" width="55" height="30" rx="4" transform="translate(-0.334)" fill="rgba(0,0,0,0.06)"/>
            <text id="_30_" data-name="30
" transform="translate(23.666 20)" font-size="14" font-family="SegoeUI, Segoe UI"><tspan x="0" y="0">30</tspan><tspan font-family="SF Pro Display"><tspan x="0" y="19"></tspan></tspan></text>
          </g>
          <text id="_100_TK" data-name="100 TK" transform="translate(326 11)" fill="#00c569" font-size="16" font-family="SegoeUI, Segoe UI"><tspan x="0" y="17">100 TK</tspan></text>
          <text id="Chinigura_Rice" data-name="Chinigura Rice" transform="translate(10 11)" font-size="16" font-family="SegoeUI, Segoe UI"><tspan x="0" y="17">Chinigura Rice</tspan></text>
        </g>
      </g>
      <g id="Content-3" data-name="Content" transform="translate(347 -74)">
        <g id="Cart_Item_1-2" data-name="Cart Item 1" transform="translate(16 74)">
          <rect id="BG-3" data-name="BG" width="374" height="42" rx="4" fill="none"/>
          <g id="Counter-2" data-name="Counter" transform="translate(219.334 9)">
            <rect id="BG-4" data-name="BG" width="55" height="30" rx="4" transform="translate(-0.334)" fill="rgba(0,0,0,0.06)"/>
            <text id="_30_2" data-name="30
" transform="translate(23.666 20)" font-size="14" font-family="SegoeUI, Segoe UI"><tspan x="0" y="0">30</tspan><tspan font-family="SF Pro Display"><tspan x="0" y="19"></tspan></tspan></text>
          </g>
          <text id="_100_TK-2" data-name="100 TK" transform="translate(326 11)" fill="#00c569" font-size="16" font-family="SegoeUI, Segoe UI"><tspan x="0" y="17">100 TK</tspan></text>
          <text id="Chinigura_Rice-2" data-name="Chinigura Rice" transform="translate(10 11)" font-size="16" font-family="SegoeUI, Segoe UI"><tspan x="0" y="17">Chinigura Rice</tspan></text>
        </g>
      </g>
      <g id="Content-4" data-name="Content" transform="translate(-16 -12)">
        <g id="Cart_Item_1-3" data-name="Cart Item 1" transform="translate(16 74)">
          <rect id="BG-5" data-name="BG" width="374" height="42" rx="4" fill="none"/>
          <g id="Counter-3" data-name="Counter" transform="translate(219.334 9)">
            <rect id="BG-6" data-name="BG" width="55" height="30" rx="4" transform="translate(-0.334)" fill="rgba(0,0,0,0.06)"/>
            <text id="_10" data-name="10" transform="translate(23.666 20)" font-size="14" font-family="SegoeUI, Segoe UI"><tspan x="0" y="0">10</tspan></text>
          </g>
          <text id="_525_TK" data-name="525 TK" transform="translate(326 11)" fill="#00c569" font-size="16" font-family="SegoeUI, Segoe UI"><tspan x="0" y="17">525 TK</tspan></text>
          <text id="Rupchanda_Oil_5ltr" data-name="Rupchanda Oil 5ltr" transform="translate(10 11)" font-size="16" font-family="SegoeUI, Segoe UI"><tspan x="0" y="17">Rupchanda Oil 5ltr</tspan></text>
        </g>
      </g>
      <g id="Content-5" data-name="Content" transform="translate(347 -12)">
        <g id="Cart_Item_1-4" data-name="Cart Item 1" transform="translate(16 74)">
          <rect id="BG-7" data-name="BG" width="374" height="42" rx="4" fill="none"/>
          <g id="Counter-4" data-name="Counter" transform="translate(219.334 9)">
            <rect id="BG-8" data-name="BG" width="55" height="30" rx="4" transform="translate(-0.334)" fill="rgba(0,0,0,0.06)"/>
            <text id="_10-2" data-name="10" transform="translate(23.666 20)" font-size="14" font-family="SegoeUI, Segoe UI"><tspan x="0" y="0">10</tspan></text>
          </g>
          <text id="_525_TK-2" data-name="525 TK" transform="translate(326 11)" fill="#00c569" font-size="16" font-family="SegoeUI, Segoe UI"><tspan x="0" y="17">525 TK</tspan></text>
          <text id="Rupchanda_Oil_5ltr-2" data-name="Rupchanda Oil 5ltr" transform="translate(10 11)" font-size="16" font-family="SegoeUI, Segoe UI"><tspan x="0" y="17">Rupchanda Oil 5ltr</tspan></text>
        </g>
      </g>
      <g id="Content-6" data-name="Content" transform="translate(-16 50)">
        <g id="Cart_Item_1-5" data-name="Cart Item 1" transform="translate(16 74)">
          <rect id="BG-9" data-name="BG" width="374" height="42" rx="4" fill="none"/>
          <g id="Counter-5" data-name="Counter" transform="translate(219.334 9)">
            <rect id="BG-10" data-name="BG" width="55" height="30" rx="4" transform="translate(-0.334)" fill="rgba(0,0,0,0.06)"/>
            <text id="_30" data-name="30" transform="translate(23.666 20)" font-size="14" font-family="SegoeUI, Segoe UI"><tspan x="0" y="0">30</tspan></text>
          </g>
          <text id="_40_tk_" data-name="40 tk    " transform="translate(326 11)" fill="#00c569" font-size="16" font-family="SegoeUI, Segoe UI"><tspan x="0" y="17" xml:space="preserve">40 tk    </tspan></text>
          <text id="Onion_1_kg_" data-name="Onion(1 kg)" transform="translate(10 11)" font-size="16" font-family="SegoeUI, Segoe UI"><tspan x="0" y="17">Onion(1 kg)</tspan></text>
        </g>
      </g>
      <g id="Content-7" data-name="Content" transform="translate(347 50)">
        <g id="Cart_Item_1-6" data-name="Cart Item 1" transform="translate(16 74)">
          <rect id="BG-11" data-name="BG" width="374" height="42" rx="4" fill="none"/>
          <g id="Counter-6" data-name="Counter" transform="translate(219.334 9)">
            <rect id="BG-12" data-name="BG" width="55" height="30" rx="4" transform="translate(-0.334)" fill="rgba(0,0,0,0.06)"/>
            <text id="_30-2" data-name="30" transform="translate(23.666 20)" font-size="14" font-family="SegoeUI, Segoe UI"><tspan x="0" y="0">30</tspan></text>
          </g>
          <text id="_40_tk_2" data-name="40 tk    " transform="translate(326 11)" fill="#00c569" font-size="16" font-family="SegoeUI, Segoe UI"><tspan x="0" y="17" xml:space="preserve">40 tk    </tspan></text>
          <text id="Onion_1_kg_2" data-name="Onion(1 kg)" transform="translate(10 11)" font-size="16" font-family="SegoeUI, Segoe UI"><tspan x="0" y="17">Onion(1 kg)</tspan></text>
        </g>
      </g>
      <g id="Content-8" data-name="Content" transform="translate(-16 112)">
        <g id="Cart_Item_1-7" data-name="Cart Item 1" transform="translate(16 74)">
          <rect id="BG-13" data-name="BG" width="374" height="42" rx="4" fill="none"/>
          <g id="Counter-7" data-name="Counter" transform="translate(219.334 9)">
            <rect id="BG-14" data-name="BG" width="55" height="30" rx="4" transform="translate(-0.334)" fill="rgba(0,0,0,0.06)"/>
            <text id="_30-3" data-name="30" transform="translate(23.666 20)" font-size="14" font-family="SegoeUI, Segoe UI"><tspan x="0" y="0">30</tspan></text>
          </g>
          <text id="_250_tk" data-name="250 tk" transform="translate(326 11)" fill="#00c569" font-size="16" font-family="SegoeUI, Segoe UI"><tspan x="0" y="17">250 tk</tspan></text>
          <text id="Garlic_50gm_" data-name="Garlic(50gm)" transform="translate(10 11)" font-size="16" font-family="SegoeUI, Segoe UI"><tspan x="0" y="17">Garlic(50gm)</tspan></text>
        </g>
      </g>
      <g id="Content-9" data-name="Content" transform="translate(347 112)">
        <g id="Cart_Item_1-8" data-name="Cart Item 1" transform="translate(16 74)">
          <rect id="BG-15" data-name="BG" width="374" height="42" rx="4" fill="none"/>
          <g id="Counter-8" data-name="Counter" transform="translate(219.334 9)">
            <rect id="BG-16" data-name="BG" width="55" height="30" rx="4" transform="translate(-0.334)" fill="rgba(0,0,0,0.06)"/>
            <text id="_30-4" data-name="30" transform="translate(23.666 20)" font-size="14" font-family="SegoeUI, Segoe UI"><tspan x="0" y="0">30</tspan></text>
          </g>
          <text id="_250_tk-2" data-name="250 tk" transform="translate(326 11)" fill="#00c569" font-size="16" font-family="SegoeUI, Segoe UI"><tspan x="0" y="17">250 tk</tspan></text>
          <text id="Garlic_50gm_2" data-name="Garlic(50gm)" transform="translate(10 11)" font-size="16" font-family="SegoeUI, Segoe UI"><tspan x="0" y="17">Garlic(50gm)</tspan></text>
        </g>
      </g>
      <g id="Content-10" data-name="Content" transform="translate(-16 174)">
        <g id="Cart_Item_1-9" data-name="Cart Item 1" transform="translate(16 74)">
          <rect id="BG-17" data-name="BG" width="374" height="42" rx="4" fill="none"/>
          <g id="Counter-9" data-name="Counter" transform="translate(219.334 9)">
            <rect id="BG-18" data-name="BG" width="55" height="30" rx="4" transform="translate(-0.334)" fill="rgba(0,0,0,0.06)"/>
            <text id="_20_" data-name="20   " transform="translate(23.666 20)" font-size="14" font-family="SegoeUI, Segoe UI"><tspan x="0" y="0" xml:space="preserve">20   </tspan></text>
          </g>
          <text id="_60_tk" data-name="60 tk" transform="translate(326 11)" fill="#00c569" font-size="16" font-family="SegoeUI, Segoe UI"><tspan x="0" y="17">60 tk</tspan></text>
          <text id="Sugar" transform="translate(10 11)" font-size="16" font-family="SegoeUI, Segoe UI"><tspan x="0" y="17">Sugar</tspan></text>
        </g>
      </g>
      <g id="Content-11" data-name="Content" transform="translate(347 174)">
        <g id="Cart_Item_1-10" data-name="Cart Item 1" transform="translate(16 74)">
          <rect id="BG-19" data-name="BG" width="374" height="42" rx="4" fill="none"/>
          <g id="Counter-10" data-name="Counter" transform="translate(219.334 9)">
            <rect id="BG-20" data-name="BG" width="55" height="30" rx="4" transform="translate(-0.334)" fill="rgba(0,0,0,0.06)"/>
            <text id="_20_2" data-name="20   " transform="translate(23.666 20)" font-size="14" font-family="SegoeUI, Segoe UI"><tspan x="0" y="0" xml:space="preserve">20   </tspan></text>
          </g>
          <text id="_60_tk-2" data-name="60 tk" transform="translate(326 11)" fill="#00c569" font-size="16" font-family="SegoeUI, Segoe UI"><tspan x="0" y="17">60 tk</tspan></text>
          <text id="Sugar-2" data-name="Sugar" transform="translate(10 11)" font-size="16" font-family="SegoeUI, Segoe UI"><tspan x="0" y="17">Sugar</tspan></text>
        </g>
      </g>
      <g id="Content-12" data-name="Content" transform="translate(-16 236)">
        <g id="Cart_Item_1-11" data-name="Cart Item 1" transform="translate(16 74)">
          <rect id="BG-21" data-name="BG" width="374" height="42" rx="4" fill="none"/>
          <g id="Counter-11" data-name="Counter" transform="translate(219.334 9)">
            <rect id="BG-22" data-name="BG" width="55" height="30" rx="4" transform="translate(-0.334)" fill="rgba(0,0,0,0.06)"/>
            <text id="_20" data-name="20" transform="translate(23.666 20)" font-size="14" font-family="SegoeUI, Segoe UI"><tspan x="0" y="0">20</tspan></text>
          </g>
          <text id="_35_tk" data-name="35 tk" transform="translate(326 11)" fill="#00c569" font-size="16" font-family="SegoeUI, Segoe UI"><tspan x="0" y="17">35 tk</tspan></text>
          <text id="Salt" transform="translate(10 11)" font-size="16" font-family="SegoeUI, Segoe UI"><tspan x="0" y="17">Salt</tspan></text>
        </g>
      </g>
      <g id="Content-13" data-name="Content" transform="translate(347 236)">
        <g id="Cart_Item_1-12" data-name="Cart Item 1" transform="translate(16 74)">
          <rect id="BG-23" data-name="BG" width="374" height="42" rx="4" fill="none"/>
          <g id="Counter-12" data-name="Counter" transform="translate(219.334 9)">
            <rect id="BG-24" data-name="BG" width="55" height="30" rx="4" transform="translate(-0.334)" fill="rgba(0,0,0,0.06)"/>
            <text id="_20-2" data-name="20" transform="translate(23.666 20)" font-size="14" font-family="SegoeUI, Segoe UI"><tspan x="0" y="0">20</tspan></text>
          </g>
          <text id="_35_tk-2" data-name="35 tk" transform="translate(326 11)" fill="#00c569" font-size="16" font-family="SegoeUI, Segoe UI"><tspan x="0" y="17">35 tk</tspan></text>
          <text id="Salt-2" data-name="Salt" transform="translate(10 11)" font-size="16" font-family="SegoeUI, Segoe UI"><tspan x="0" y="17">Salt</tspan></text>
        </g>
      </g>
      <g id="Content-14" data-name="Content" transform="translate(-16 298)">
        <g id="Cart_Item_1-13" data-name="Cart Item 1" transform="translate(16 74)">
          <rect id="BG-25" data-name="BG" width="374" height="42" rx="4" fill="none"/>
          <g id="Counter-13" data-name="Counter" transform="translate(219.334 9)">
            <rect id="BG-26" data-name="BG" width="55" height="30" rx="4" transform="translate(-0.334)" fill="rgba(0,0,0,0.06)"/>
            <text id="_3" data-name="3" transform="translate(23.666 20)" font-size="14" font-family="SegoeUI, Segoe UI"><tspan x="0" y="0">3</tspan></text>
          </g>
          <text id="_500_tk" data-name="500 tk" transform="translate(326 11)" fill="#00c569" font-size="16" font-family="SegoeUI, Segoe UI"><tspan x="0" y="17">500 tk</tspan></text>
          <text id="Dano_Milk_Powder" data-name="Dano Milk Powder" transform="translate(10 11)" font-size="16" font-family="SegoeUI, Segoe UI"><tspan x="0" y="17">Dano Milk Powder</tspan></text>
        </g>
      </g>
      <g id="Content-15" data-name="Content" transform="translate(347 298)">
        <g id="Cart_Item_1-14" data-name="Cart Item 1" transform="translate(16 74)">
          <rect id="BG-27" data-name="BG" width="374" height="42" rx="4" fill="none"/>
          <g id="Counter-14" data-name="Counter" transform="translate(219.334 9)">
            <rect id="BG-28" data-name="BG" width="55" height="30" rx="4" transform="translate(-0.334)" fill="rgba(0,0,0,0.06)"/>
            <text id="_3-2" data-name="3" transform="translate(23.666 20)" font-size="14" font-family="SegoeUI, Segoe UI"><tspan x="0" y="0">3</tspan></text>
          </g>
          <text id="_500_tk-2" data-name="500 tk" transform="translate(326 11)" fill="#00c569" font-size="16" font-family="SegoeUI, Segoe UI"><tspan x="0" y="17">500 tk</tspan></text>
          <text id="Dano_Milk_Powder-2" data-name="Dano Milk Powder" transform="translate(10 11)" font-size="16" font-family="SegoeUI, Segoe UI"><tspan x="0" y="17">Dano Milk Powder</tspan></text>
        </g>
      </g>
      <g id="Content-16" data-name="Content" transform="translate(-16 360)">
        <g id="Cart_Item_1-15" data-name="Cart Item 1" transform="translate(16 74)">
          <rect id="BG-29" data-name="BG" width="374" height="42" rx="4" fill="none"/>
          <g id="Counter-15" data-name="Counter" transform="translate(219.334 9)">
            <rect id="BG-30" data-name="BG" width="55" height="30" rx="4" transform="translate(-0.334)" fill="rgba(0,0,0,0.06)"/>
            <text id="_130" data-name="130" transform="translate(23.666 20)" font-size="14" font-family="SegoeUI, Segoe UI"><tspan x="0" y="0">130</tspan></text>
          </g>
          <text id="_97_tk" data-name="97 tk" transform="translate(326 11)" fill="#00c569" font-size="16" font-family="SegoeUI, Segoe UI"><tspan x="0" y="17">97 tk</tspan></text>
          <text id="Egg_12_pc_" data-name="Egg(12 pc)" transform="translate(10 11)" font-size="16" font-family="SegoeUI, Segoe UI"><tspan x="0" y="17">Egg(12 pc)</tspan></text>
        </g>
      </g>
      <g id="Content-17" data-name="Content" transform="translate(347 360)">
        <g id="Cart_Item_1-16" data-name="Cart Item 1" transform="translate(16 74)">
          <rect id="BG-31" data-name="BG" width="374" height="42" rx="4" fill="none"/>
          <g id="Counter-16" data-name="Counter" transform="translate(219.334 9)">
            <rect id="BG-32" data-name="BG" width="55" height="30" rx="4" transform="translate(-0.334)" fill="rgba(0,0,0,0.06)"/>
            <text id="_130-2" data-name="130" transform="translate(23.666 20)" font-size="14" font-family="SegoeUI, Segoe UI"><tspan x="0" y="0">130</tspan></text>
          </g>
          <text id="_97_tk-2" data-name="97 tk" transform="translate(326 11)" fill="#00c569" font-size="16" font-family="SegoeUI, Segoe UI"><tspan x="0" y="17">97 tk</tspan></text>
          <text id="Egg_12_pc_2" data-name="Egg(12 pc)" transform="translate(10 11)" font-size="16" font-family="SegoeUI, Segoe UI"><tspan x="0" y="17">Egg(12 pc)</tspan></text>
        </g>
      </g>
      <g id="Content-18" data-name="Content" transform="translate(-16 422)">
        <g id="Cart_Item_1-17" data-name="Cart Item 1" transform="translate(16 74)">
          <rect id="BG-33" data-name="BG" width="374" height="42" rx="4" fill="none"/>
          <g id="Counter-17" data-name="Counter" transform="translate(219.334 9)">
            <rect id="BG-34" data-name="BG" width="55" height="30" rx="4" transform="translate(-0.334)" fill="rgba(0,0,0,0.06)"/>
            <text id="_8" data-name="8" transform="translate(23.666 20)" font-size="14" font-family="SegoeUI, Segoe UI"><tspan x="0" y="0">8</tspan></text>
          </g>
          <text id="_90_tk" data-name="90 tk" transform="translate(326 11)" fill="#00c569" font-size="16" font-family="SegoeUI, Segoe UI"><tspan x="0" y="17">90 tk</tspan></text>
          <text id="Coca_Cola_2ltr" data-name="Coca Cola 2ltr" transform="translate(10 11)" font-size="16" font-family="SegoeUI, Segoe UI"><tspan x="0" y="17">Coca Cola 2ltr</tspan></text>
        </g>
      </g>
      <g id="Content-19" data-name="Content" transform="translate(347 422)">
        <g id="Cart_Item_1-18" data-name="Cart Item 1" transform="translate(16 74)">
          <rect id="BG-35" data-name="BG" width="374" height="42" rx="4" fill="none"/>
          <g id="Counter-18" data-name="Counter" transform="translate(219.334 9)">
            <rect id="BG-36" data-name="BG" width="55" height="30" rx="4" transform="translate(-0.334)" fill="rgba(0,0,0,0.06)"/>
            <text id="_8-2" data-name="8" transform="translate(23.666 20)" font-size="14" font-family="SegoeUI, Segoe UI"><tspan x="0" y="0">8</tspan></text>
          </g>
          <text id="_90_tk-2" data-name="90 tk" transform="translate(326 11)" fill="#00c569" font-size="16" font-family="SegoeUI, Segoe UI"><tspan x="0" y="17">90 tk</tspan></text>
          <text id="Coca_Cola_2ltr-2" data-name="Coca Cola 2ltr" transform="translate(10 11)" font-size="16" font-family="SegoeUI, Segoe UI"><tspan x="0" y="17">Coca Cola 2ltr</tspan></text>
        </g>
      </g>
    </g>
    <g id="Search" transform="translate(-9 126)">
      <rect id="Field_Search" width="372" height="40" rx="20" transform="translate(30 74)" fill="rgba(0,0,0,0.03)"/>
      <g id="Icon_Cancel" transform="translate(370 88)">
        <path id="Shape" d="M12,0,0,12" fill="none" stroke="#000" stroke-linecap="round" stroke-linejoin="round" stroke-miterlimit="10" stroke-width="1.5"/>
        <path id="Shape-2" data-name="Shape" d="M0,0,12,12" fill="none" stroke="#000" stroke-linecap="round" stroke-linejoin="round" stroke-miterlimit="10" stroke-width="1.5"/>
      </g>
      <g id="Icon_Search" transform="translate(50 85)">
        <circle id="Oval" cx="7.5" cy="7.5" r="7.5" fill="rgba(0,0,0,0)" stroke="#00c569" stroke-linecap="round" stroke-linejoin="round" stroke-width="1.5"/>
        <path id="Shape-3" data-name="Shape" d="M5.2,5.2,0,0" transform="translate(12.8 12.8)" fill="rgba(0,0,0,0)" stroke="#00c569" stroke-linecap="round" stroke-linejoin="round" stroke-width="1.5"/>
      </g>
    </g>
    <g id="Backward_arrow" data-name="Backward arrow" transform="translate(16 37)">
      <path id="Path_10" data-name="Path 10" d="M8,0,6.545,1.455l5.506,5.506H0V9.039H12.052L6.545,14.545,8,16l8-8Z" transform="translate(16 16) rotate(180)" fill="#56c596" stroke="#56c596" stroke-width="1"/>
    </g>
    <text id="Chatat" transform="translate(14 170)" fill="#00c569" font-size="30" font-family="SegoeUISymbol, Segoe UI Symbol"><tspan x="0" y="0">Chat</tspan><tspan y="0" fill="#fff">at</tspan></text>
    <text id="uQueueeat" transform="translate(154 166)" fill="#fff" font-size="30" font-family="SegoeUISymbol, Segoe UI Symbol"><tspan x="0" y="0">u</tspan><tspan y="0" fill="#00c569">Queue</tspan><tspan y="0">eat</tspan></text>
    <text id="Browse" transform="translate(305 167)" fill="#00c569" font-size="30" font-family="SegoeUISymbol, Segoe UI Symbol"><tspan x="0" y="0">Browse</tspan></text>
    <path id="Path_273" data-name="Path 273" d="M0,0H122V3.083H0V0Z" transform="translate(292 173.917)" fill="#00c569"/>
    <g transform="matrix(1, 0, 0, 1, 0, 0)" filter="url(#Sugandha_Store)">
      <text id="Sugandha_Store-2" data-name="Sugandha Store" transform="translate(133 114)" fill="#010101" font-size="22" font-family="SegoeUI, Segoe UI"><tspan x="0" y="0">SUGANDHA STORE</tspan></text>
    </g>
    <g id="Group_17" data-name="Group 17" transform="translate(-5.87 -91.59)">
      <path id="Path_247" data-name="Path 247" d="M140.65,265.7c0,.389-.5.7-1.106.7H113.978c-.611,0-1.106-.315-1.106-.7l-2.581-14.94c0-.389.5-.7,1.106-.7h30.851c.611,0,1.106.315,1.106.7Z" transform="translate(-11.252 -56.703)" fill="url(#linear-gradient)"/>
      <path id="Path_251" data-name="Path 251" d="M135.007,241.289a1.9,1.9,0,0,1-1.833,1.964H98.7a1.9,1.9,0,0,1-1.833-1.964V240.26A1.9,1.9,0,0,1,98.7,238.3h34.472a1.9,1.9,0,0,1,1.833,1.964Z" transform="translate(0 -48.879)" fill="url(#linear-gradient-2)"/>
      <path id="Path_252" data-name="Path 252" d="M144.966,192.331a1.768,1.768,0,0,1-.763,2.379l-.151.08a1.767,1.767,0,0,1-2.4-.678l-5.08-9.462a1.767,1.767,0,0,1,.763-2.379l.151-.081a1.767,1.767,0,0,1,2.4.678Z" transform="translate(-33.016)" fill="url(#linear-gradient-3)"/>
      <path id="Path_253" data-name="Path 253" d="M236.366,192.331a1.768,1.768,0,0,0,.763,2.379l.151.08a1.767,1.767,0,0,0,2.4-.678l5.081-9.462a1.767,1.767,0,0,0-.763-2.379l-.151-.081a1.767,1.767,0,0,0-2.4.678Z" transform="translate(-116.439)" fill="url(#linear-gradient-3)"/>
      <path id="Path_254" data-name="Path 254" d="M245.536,244.351a.94.94,0,1,1-.94-.94A.94.94,0,0,1,245.536,244.351Z" transform="translate(-122.771 -53.129)" fill="url(#linear-gradient-5)"/>
      <path id="Path_255" data-name="Path 255" d="M173.962,244.351a.94.94,0,1,1-.94-.94A.94.94,0,0,1,173.962,244.351Z" transform="translate(-62.908 -53.129)" fill="url(#linear-gradient-5)"/>
    </g>
    <path id="Path_256" data-name="Path 256" d="M258.05,286.924c0,.592-1,1.073-2.244,1.073h-.511c-1.24,0-2.245-.48-2.245-1.073v-8.188c0-.592,1.005-1.072,2.245-1.072h.511c1.24,0,2.244.48,2.244,1.072Z" transform="translate(-150.05 -172.663)" fill="url(#linear-gradient-5)"/>
    <path id="Path_258" data-name="Path 258" d="M258.05,286.924c0,.592-1,1.073-2.244,1.073h-.511c-1.24,0-2.245-.48-2.245-1.073v-8.188c0-.592,1.005-1.072,2.245-1.072h.511c1.24,0,2.244.48,2.244,1.072Z" transform="translate(-140.05 -172.663)" fill="url(#linear-gradient-5)"/>
  </g>
</svg>
