<svg xmlns="http://www.w3.org/2000/svg" xmlns:xlink="http://www.w3.org/1999/xlink" xmlns:lucid="lucid" width="2946.84" height="2480"><g transform="translate(-1220 -420)" lucid:page-tab-id=".Q4MUjXso07N"><path d="M0 0h4984.95v3070.3H0z" fill="#fff"/><path d="M3271.28 2804.2h279.76v75.8h-279.76z" fill="none"/><path d="M1354.2 1564.8c0 21.03-17.04 38.08-38.06 38.08-21.03 0-38.07-17.05-38.07-38.07s17.04-38.06 38.07-38.06c21.02 0 38.07 17.04 38.07 38.07z" stroke="#333" stroke-width="3" fill="#fff"/><path d="M1316.14 1602.88v128.44c0 2.76 1.07 6.97 2.4 9.4l73.74 135.33m-76.14-139.73L1240 1876.05m0-235.1h152.28" stroke="#333" stroke-width="3" fill="none"/><path d="M1240 1531.74c0-2.76 2.24-5 5-5h142.28c2.76 0 5 2.24 5 5v361.3c0 2.77-2.24 5-5 5H1245c-2.76 0-5-2.23-5-5z" fill="none"/><use xlink:href="#a" transform="matrix(1,0,0,1,1160,1876.0461576811135) translate(99.59876543209877 12.222222222222221)"/><path d="M2032.77 1238.76c0 41.86-41.75 75.8-93.25 75.8s-93.25-33.94-93.25-75.8 41.75-75.8 93.25-75.8 93.25 33.94 93.25 75.8z" stroke="#000" stroke-width="3" fill="#fff"/><use xlink:href="#b" transform="matrix(1,0,0,1,1874.2422203282272,1193.2784210226469) translate(16.796296296296298 36.611111111111114)"/><use xlink:href="#c" transform="matrix(1,0,0,1,1874.2422203282272,1193.2784210226469) translate(89.51234567901236 36.611111111111114)"/><use xlink:href="#d" transform="matrix(1,0,0,1,1874.2422203282272,1193.2784210226469) translate(26.611111111111114 63.27777777777778)"/><path d="M2032.77 1426.65c0 41.86-41.75 75.8-93.25 75.8s-93.25-33.94-93.25-75.8 41.75-75.8 93.25-75.8 93.25 33.94 93.25 75.8z" stroke="#000" stroke-width="3" fill="#fff"/><use xlink:href="#e" transform="matrix(1,0,0,1,1874.2422203282272,1381.1702892702497) translate(35.28395061728395 36.611111111111114)"/><use xlink:href="#f" transform="matrix(1,0,0,1,1874.2422203282272,1381.1702892702497) translate(31.549382716049386 63.27777777777778)"/><path d="M1318 1710.84l514.57-461.15M1318.02 1710.84l-2.62 2.34" stroke="#333" fill="none"/><path d="M1843.56 1239.84l-7.53 12.97-6.2-6.9z" stroke="#333" fill="#333"/><path d="M1327.26 1702.7l503.05-268.34M1327.27 1702.7l-.45.25" stroke="#333" fill="none"/><path d="M1843.34 1427.4l-10.4 10.8-4.37-8.17z" stroke="#333" fill="#333"/><path d="M2032.2 2035.67c0 41.86-41.74 75.8-93.24 75.8-51.5 0-93.25-33.94-93.25-75.8s41.76-75.8 93.26-75.8c51.5 0 93.25 33.94 93.25 75.8z" stroke="#000" stroke-width="3" fill="#fff"/><use xlink:href="#g" transform="matrix(1,0,0,1,1873.6842255522763,1990.1937920482255) translate(20.098765432098766 23.27777777777778)"/><use xlink:href="#h" transform="matrix(1,0,0,1,1873.6842255522763,1990.1937920482255) translate(26.271604938271604 23.27777777777778)"/><use xlink:href="#i" transform="matrix(1,0,0,1,1873.6842255522763,1990.1937920482255) translate(80.03703703703704 23.27777777777778)"/><use xlink:href="#j" transform="matrix(1,0,0,1,1873.6842255522763,1990.1937920482255) translate(12.228395061728392 49.94444444444445)"/><use xlink:href="#k" transform="matrix(1,0,0,1,1873.6842255522763,1990.1937920482255) translate(34.635802469135804 76.61111111111111)"/><path d="M2032.77 2245.24c0 41.86-41.75 75.8-93.25 75.8s-93.25-33.94-93.25-75.8 41.75-75.8 93.25-75.8 93.25 33.94 93.25 75.8z" stroke="#000" stroke-width="3" fill="#fff"/><use xlink:href="#l" transform="matrix(1,0,0,1,1874.2422208463001,2199.76617291168) translate(20.098765432098766 17.77777777777778)"/><use xlink:href="#m" transform="matrix(1,0,0,1,1874.2422208463001,2199.76617291168) translate(73.8641975308642 17.77777777777778)"/><use xlink:href="#n" transform="matrix(1,0,0,1,1874.2422208463001,2199.76617291168) translate(26.73456790123457 44.44444444444444)"/><use xlink:href="#o" transform="matrix(1,0,0,1,1874.2422208463001,2199.76617291168) translate(26.02469135802469 71.11111111111111)"/><use xlink:href="#p" transform="matrix(1,0,0,1,1874.2422208463001,2199.76617291168) translate(18.709876543209873 97.77777777777777)"/><path d="M2038.04 1622.45c0 52.33-46.1 94.75-102.98 94.75-56.87 0-102.98-42.42-102.98-94.75 0-52.32 46.1-94.74 102.98-94.74s102.98 42.43 102.98 94.75z" stroke="#000" stroke-width="3" fill="#fff"/><use xlink:href="#q" transform="matrix(1,0,0,1,1862.9758010931455,1565.6070161402336) translate(31.172839506172842 17.77777777777778)"/><use xlink:href="#r" transform="matrix(1,0,0,1,1862.9758010931455,1565.6070161402336) translate(8.981481481481481 44.44444444444444)"/><use xlink:href="#s" transform="matrix(1,0,0,1,1862.9758010931455,1565.6070161402336) translate(117.5 44.44444444444444)"/><use xlink:href="#t" transform="matrix(1,0,0,1,1862.9758010931455,1565.6070161402336) translate(14.567901234567891 71.11111111111111)"/><use xlink:href="#u" transform="matrix(1,0,0,1,1862.9758010931455,1565.6070161402336) translate(2.7777777777777715 97.77777777777777)"/><use xlink:href="#v" transform="matrix(1,0,0,1,1862.9758010931455,1565.6070161402336) translate(37.28395061728394 97.77777777777777)"/><use xlink:href="#w" transform="matrix(1,0,0,1,1862.9758010931455,1565.6070161402336) translate(80.49382716049382 97.77777777777777)"/><use xlink:href="#x" transform="matrix(1,0,0,1,1862.9758010931455,1565.6070161402336) translate(105.18518518518518 97.77777777777777)"/><use xlink:href="#y" transform="matrix(1,0,0,1,1862.9758010931455,1565.6070161402336) translate(55.89506172839506 124.44444444444446)"/><path d="M1318.13 1711.1l496.3-85.85M1318.14 1711.1l-3.46.6" stroke="#333" fill="none"/><path d="M1829 1622.73l-13.28 7-1.58-9.14z" stroke="#333" fill="#333"/><path d="M1318.07 1711.42l517.04 291M1318.08 1711.43l-3.06-1.72" stroke="#333" fill="none"/><path d="M1847.98 2009.66l-14.7-2.96 4.54-8.07z" stroke="#333" fill="#333"/><path d="M1318.13 1711.3l500.36 112.34M1318.14 1711.3l-3.43-.78" stroke="#333" fill="none"/><path d="M1832.9 1826.88l-14.93 1.4 2.03-9.05z" stroke="#333" fill="#333"/><path d="M1318 1711.53l515.26 522.05M1318 1711.54l-2.47-2.5" stroke="#333" fill="none"/><path d="M1843.63 2244.1l-13.32-6.9 6.6-6.52z" stroke="#333" fill="#333"/><path d="M2034.14 1827.23c0 48.84-44.36 88.43-99.08 88.43s-99.08-39.6-99.08-88.43c0-48.84 44.36-88.43 99.08-88.43s99.08 39.6 99.08 88.43z" stroke="#000" stroke-width="3" fill="#fff"/><use xlink:href="#z" transform="matrix(1,0,0,1,1865.7052247566257,1774.1754338648882) translate(20.796296296296298 17.77777777777778)"/><use xlink:href="#A" transform="matrix(1,0,0,1,1865.7052247566257,1774.1754338648882) translate(7.246913580246911 44.44444444444444)"/><use xlink:href="#B" transform="matrix(1,0,0,1,1865.7052247566257,1774.1754338648882) translate(104.71604938271605 44.44444444444444)"/><use xlink:href="#C" transform="matrix(1,0,0,1,1865.7052247566257,1774.1754338648882) translate(0.7037037037037095 71.11111111111111)"/><use xlink:href="#D" transform="matrix(1,0,0,1,1865.7052247566257,1774.1754338648882) translate(1.8148148148148096 97.77777777777777)"/><use xlink:href="#E" transform="matrix(1,0,0,1,1865.7052247566257,1774.1754338648882) translate(63.35802469135802 97.77777777777777)"/><use xlink:href="#F" transform="matrix(1,0,0,1,1865.7052247566257,1774.1754338648882) translate(119.96296296296296 97.77777777777777)"/><use xlink:href="#G" transform="matrix(1,0,0,1,1865.7052247566257,1774.1754338648882) translate(52.89506172839506 124.44444444444446)"/><path d="M2570.13 1576.7c0 20.28-16.44 36.72-36.7 36.72-20.3 0-36.72-16.44-36.72-36.7 0-20.28 16.44-36.72 36.72-36.72 20.27 0 36.7 16.44 36.7 36.7z" stroke="#333" stroke-width="3" fill="#fff"/><path d="M2533.42 1613.42v123.2c0 2.77 1.07 6.97 2.4 9.4l71.02 130.03m-73.42-134.42L2460 1876.05m0-225.92h146.84" stroke="#333" stroke-width="3" fill="none"/><path d="M2460 1545c0-2.76 2.24-5 5-5h136.84c2.76 0 5 2.24 5 5v348.05c0 2.76-2.24 5-5 5H2465c-2.76 0-5-2.24-5-5z" fill="none"/><use xlink:href="#H" transform="matrix(1,0,0,1,2380,1876.0461576811135) translate(81.01543209876544 12.222222222222221)"/><path d="M2531.56 1717.43l-487.52-467.34M2531.55 1717.42l2.53 2.43" stroke="#333" fill="none"/><path d="M2033.38 1239.88l13.5 6.52-6.4 6.7z" stroke="#333" fill="#333"/><path d="M2531.5 1717.52l-485.13-282.62M2531.48 1717.5l3.03 1.78" stroke="#333" fill="none"/><path d="M2033.6 1427.46l14.67 3.18-4.66 8z" stroke="#333" fill="#333"/><path d="M2531.58 1718.15l-486.06 515.18M2531.57 1718.16l2.4-2.55" stroke="#333" fill="none"/><path d="M2035.38 2244.07l6.42-13.56 6.74 6.37z" stroke="#333" fill="#333"/><path d="M2531.43 1717.9l-479.8 105.8M2531.42 1717.9l3.43-.76" stroke="#333" fill="none"/><path d="M2037.22 1826.88l12.94-7.6 2 9.06z" stroke="#333" fill="#333"/><path d="M2531.43 1717.7l-475.8-92.13M2531.42 1717.7l3.44.66" stroke="#333" fill="none"/><path d="M2041.13 1622.76l14.9-1.84-1.77 9.1z" stroke="#333" fill="#333"/><path d="M2531.5 1718.05l-483.97 308.8M2531.5 1718.06l2.95-1.9" stroke="#333" fill="none"/><path d="M2035.08 2034.8l9.53-11.58 5 7.82z" stroke="#333" fill="#333"/><path d="M2850.13 2096.7c0 20.28-16.44 36.72-36.7 36.72-20.3 0-36.72-16.44-36.72-36.7 0-20.28 16.44-36.72 36.72-36.72 20.27 0 36.7 16.44 36.7 36.7z" stroke="#333" stroke-width="3" fill="#fff"/><path d="M2813.42 2133.42v123.2c0 2.77 1.07 6.97 2.4 9.4l71.02 130.03m-73.42-134.42L2740 2396.05m0-225.92h146.84" stroke="#333" stroke-width="3" fill="none"/><path d="M2740 2065c0-2.76 2.24-5 5-5h136.84c2.76 0 5 2.24 5 5v348.05c0 2.76-2.24 5-5 5H2745c-2.76 0-5-2.24-5-5z" fill="none"/><use xlink:href="#H" transform="matrix(1,0,0,1,2660,2396.0461576811135) translate(81.01543209876544 12.222222222222221)"/><path d="M2815.3 2237.42L3138.95 1938M2815.3 2237.4l-2.58 2.4" stroke="#333" fill="none"/><path d="M3149.8 1927.96l-7.32 13.1-6.3-6.8z" stroke="#333" fill="#333"/><path d="M2815.4 2237.67l313.9-82.54M2815.4 2237.66l-3.38.9" stroke="#333" fill="none"/><path d="M3143.6 2151.37l-12.62 8.12-2.36-8.98z" stroke="#333" fill="#333"/><path d="M3344.82 2150.96c0 41.86-44.36 75.8-99.08 75.8s-99.08-33.94-99.08-75.8 44.36-75.8 99.08-75.8 99.08 33.94 99.08 75.8z" stroke="#000" stroke-width="3" fill="#fff"/><use xlink:href="#I" transform="matrix(1,0,0,1,3176.383735215703,2105.485584407371) translate(43.60493827160494 17.77777777777778)"/><use xlink:href="#J" transform="matrix(1,0,0,1,3176.383735215703,2105.485584407371) translate(14.592592592592595 44.44444444444444)"/><use xlink:href="#s" transform="matrix(1,0,0,1,3176.383735215703,2105.485584407371) translate(105.88888888888889 44.44444444444444)"/><use xlink:href="#K" transform="matrix(1,0,0,1,3176.383735215703,2105.485584407371) translate(20.209876543209873 71.11111111111111)"/><use xlink:href="#L" transform="matrix(1,0,0,1,3176.383735215703,2105.485584407371) translate(57.24691358024691 71.11111111111111)"/><use xlink:href="#M" transform="matrix(1,0,0,1,3176.383735215703,2105.485584407371) translate(15.888888888888893 97.77777777777777)"/><use xlink:href="#N" transform="matrix(1,0,0,1,3176.383735215703,2105.485584407371) translate(96.07407407407408 97.77777777777777)"/><path d="M2815.38 2238.03l320.44 130.84M2815.4 2238.04l-3.26-1.33" stroke="#333" fill="none"/><path d="M3149.5 2374.45l-14.97-1.1 3.5-8.58z" stroke="#333" fill="#333"/><path d="M3339 2375.06c0 41.86-41.76 75.8-93.26 75.8-51.5 0-93.25-33.94-93.25-75.8s41.74-75.8 93.24-75.8c51.5 0 93.25 33.94 93.25 75.8z" stroke="#000" stroke-width="3" fill="#fff"/><use xlink:href="#O" transform="matrix(1,0,0,1,3180.463560089342,2329.5855156760545) translate(30.993827160493822 36.611111111111114)"/><use xlink:href="#p" transform="matrix(1,0,0,1,3180.463560089342,2329.5855156760545) translate(18.709876543209873 63.27777777777778)"/><path d="M3339 1926.86c0 41.86-41.76 75.8-93.26 75.8-51.5 0-93.25-33.94-93.25-75.8s41.74-75.8 93.24-75.8c51.5 0 93.25 33.94 93.25 75.8z" stroke="#000" stroke-width="3" fill="#fff"/><use xlink:href="#P" transform="matrix(1,0,0,1,3180.463560089342,1881.3856531386873) translate(10.623456790123448 17.77777777777778)"/><use xlink:href="#Q" transform="matrix(1,0,0,1,3180.463560089342,1881.3856531386873) translate(50.129629629629626 17.77777777777778)"/><use xlink:href="#R" transform="matrix(1,0,0,1,3180.463560089342,1881.3856531386873) translate(1.3333333333333428 44.44444444444444)"/><use xlink:href="#S" transform="matrix(1,0,0,1,3180.463560089342,1881.3856531386873) translate(74.11111111111111 44.44444444444444)"/><use xlink:href="#T" transform="matrix(1,0,0,1,3180.463560089342,1881.3856531386873) translate(9.97530864197531 71.11111111111111)"/><use xlink:href="#U" transform="matrix(1,0,0,1,3180.463560089342,1881.3856531386873) translate(74.11111111111111 71.11111111111111)"/><use xlink:href="#V" transform="matrix(1,0,0,1,3180.463560089342,1881.3856531386873) translate(47.598765432098766 97.77777777777777)"/><path d="M3637.05 2186.33c0 41.87-41.75 75.8-93.26 75.8-51.5 0-93.26-33.93-93.26-75.8 0-41.86 41.75-75.8 93.25-75.8s93.25 33.94 93.25 75.8z" stroke="#000" stroke-width="3" fill="#fff"/><use xlink:href="#W" transform="matrix(1,0,0,1,3478.517247200648,2140.857011476486) translate(0.09876543209875877 36.611111111111114)"/><use xlink:href="#X" transform="matrix(1,0,0,1,3478.517247200648,2140.857011476486) translate(58.12345679012345 36.611111111111114)"/><use xlink:href="#Y" transform="matrix(1,0,0,1,3478.517247200648,2140.857011476486) translate(112.38271604938271 36.611111111111114)"/><use xlink:href="#Z" transform="matrix(1,0,0,1,3478.517247200648,2140.857011476486) translate(14.327160493827165 63.27777777777778)"/><use xlink:href="#aa" transform="matrix(1,0,0,1,3478.517247200648,2140.857011476486) translate(74.75925925925927 63.27777777777778)"/><path d="M3637.05 1999.37c0 41.86-41.75 75.8-93.26 75.8-51.5 0-93.26-33.94-93.26-75.8s41.75-75.8 93.25-75.8 93.25 33.94 93.25 75.8z" stroke="#000" stroke-width="3" fill="#fff"/><use xlink:href="#ab" transform="matrix(1,0,0,1,3478.517247200648,1953.8937541032747) translate(29.75925925925926 17.77777777777778)"/><use xlink:href="#ac" transform="matrix(1,0,0,1,3478.517247200648,1953.8937541032747) translate(2.012345679012334 44.44444444444444)"/><use xlink:href="#w" transform="matrix(1,0,0,1,3478.517247200648,1953.8937541032747) translate(19.203703703703702 71.11111111111111)"/><use xlink:href="#ad" transform="matrix(1,0,0,1,3478.517247200648,1953.8937541032747) translate(43.89506172839506 71.11111111111111)"/><use xlink:href="#ae" transform="matrix(1,0,0,1,3478.517247200648,1953.8937541032747) translate(22.413580246913583 97.77777777777777)"/><use xlink:href="#N" transform="matrix(1,0,0,1,3478.517247200648,1953.8937541032747) translate(81.5493827160494 97.77777777777777)"/><path d="M3649.5 2373.3c0 41.86-47.32 75.8-105.7 75.8-58.4 0-105.72-33.94-105.72-75.8s47.33-75.8 105.7-75.8c58.4 0 105.73 33.94 105.73 75.8z" stroke="#000" stroke-width="3" fill="#fff"/><use xlink:href="#af" transform="matrix(1,0,0,1,3469.791085031045,2327.8202688496976) translate(33.75925925925926 17.77777777777778)"/><use xlink:href="#ag" transform="matrix(1,0,0,1,3469.791085031045,2327.8202688496976) translate(36.50617283950618 44.44444444444444)"/><use xlink:href="#ah" transform="matrix(1,0,0,1,3469.791085031045,2327.8202688496976) translate(36.32098765432099 71.11111111111111)"/><use xlink:href="#ai" transform="matrix(1,0,0,1,3469.791085031045,2327.8202688496976) translate(26.351851851851848 97.77777777777777)"/><path d="M4110.13 2096.7c0 20.28-16.44 36.72-36.7 36.72-20.3 0-36.72-16.44-36.72-36.7 0-20.28 16.44-36.72 36.72-36.72 20.27 0 36.7 16.44 36.7 36.7z" stroke="#333" stroke-width="3" fill="#fff"/><path d="M4073.42 2133.42v123.2c0 2.77 1.07 6.97 2.4 9.4l71.02 130.03m-73.42-134.42L4000 2396.05m0-225.92h146.84" stroke="#333" stroke-width="3" fill="none"/><path d="M4000 2065c0-2.76 2.24-5 5-5h136.84c2.76 0 5 2.24 5 5v348.05c0 2.76-2.24 5-5 5H4005c-2.76 0-5-2.24-5-5z" fill="none"/><use xlink:href="#aj" transform="matrix(1,0,0,1,3920,2396.0461576811135) translate(110.07716049382717 12.222222222222221)"/><path d="M4071.48 2237.6l-418.58-230.33M4071.47 2237.6l3.08 1.7" stroke="#333" fill="none"/><path d="M3639.97 2000.15l14.73 2.82-4.47 8.12z" stroke="#333" fill="#333"/><path d="M4071.42 2237.8l-416.6-49.53M4071.4 2237.78l3.5.42" stroke="#333" fill="none"/><path d="M3640.15 2186.53l14.72-2.92-1.1 9.2z" stroke="#333" fill="#333"/><path d="M4071.44 2238l-404.83 130.28M4071.43 2238l3.34-1.07" stroke="#333" fill="none"/><path d="M3652.55 2372.8l12.16-8.78 2.85 8.82z" stroke="#333" fill="#333"/><path d="M2850.07 722.05c0 21.02-17.04 38.07-38.07 38.07-21.02 0-38.07-17.05-38.07-38.07 0-21.03 17.05-38.07 38.07-38.07 21.03 0 38.07 17.04 38.07 38.07z" stroke="#333" stroke-width="3" fill="#fff"/><path d="M2812 760.12v128.44c0 2.76 1.07 6.97 2.4 9.4l73.74 135.33M2812 893.55l-76.14 139.73m0-235.12h152.28" stroke="#333" stroke-width="3" fill="none"/><path d="M2735.86 688.98c0-2.76 2.24-5 5-5h142.28c2.76 0 5 2.24 5 5v361.3c0 2.77-2.24 5-5 5h-142.28c-2.76 0-5-2.23-5-5z" fill="none"/><use xlink:href="#a" transform="matrix(1,0,0,1,2655.8637482499194,1033.2854171279184) translate(99.59876543209877 12.222222222222221)"/><path d="M3320 749.4c0 46.35-46.27 83.92-103.35 83.92-57.07 0-103.34-37.57-103.34-83.9 0-46.36 46.28-83.93 103.35-83.93 57.08 0 103.35 37.56 103.35 83.9z" stroke="#000" stroke-width="3" fill="#fff"/><use xlink:href="#ak" transform="matrix(1,0,0,1,3144.311779840702,699.0591687938596) translate(4.043209876543216 28.27777777777778)"/><use xlink:href="#al" transform="matrix(1,0,0,1,3144.311779840702,699.0591687938596) translate(80.5246913580247 28.27777777777778)"/><use xlink:href="#am" transform="matrix(1,0,0,1,3144.311779840702,699.0591687938596) translate(36.75925925925926 54.94444444444445)"/><use xlink:href="#an" transform="matrix(1,0,0,1,3144.311779840702,699.0591687938596) translate(66.38888888888889 54.94444444444445)"/><use xlink:href="#ao" transform="matrix(1,0,0,1,3144.311779840702,699.0591687938596) translate(-0.8950617283950635 81.61111111111111)"/><path d="M2813.85 868.06l289.28-300.68M2813.86 868.05l-2.44 2.53" stroke="#333" fill="none"/><path d="M3113.36 556.74l-6.55 13.5-6.67-6.44z" stroke="#333" fill="#333"/><path d="M2813.97 868.23l282.62-112.75M2813.98 868.23l-3.27 1.3" stroke="#333" fill="none"/><path d="M3110.3 750l-11.53 9.6-3.43-8.6z" stroke="#333" fill="#333"/><path d="M2814 868.54l281.94 72.68M2814 868.55l-3.4-.88" stroke="#333" fill="none"/><path d="M3110.24 944.9l-14.97.93 2.3-8.98z" stroke="#333" fill="#333"/><path d="M2813.87 868.76l286 269.33M2813.87 868.77l-2.55-2.4" stroke="#333" fill="none"/><path d="M3110.63 1148.2l-13.56-6.4 6.35-6.74z" stroke="#333" fill="#333"/><path d="M3299.8 945.3c0 41.87-41.74 75.8-93.24 75.8-51.5 0-93.25-33.93-93.25-75.8 0-41.85 41.76-75.8 93.26-75.8 51.5 0 93.25 33.95 93.25 75.8z" stroke="#000" stroke-width="3" fill="#fff"/><g><use xlink:href="#ap" transform="matrix(1,0,0,1,3141.2839182738467,899.8285519224255) translate(41.70370370370371 17.77777777777778)"/><use xlink:href="#aq" transform="matrix(1,0,0,1,3141.2839182738467,899.8285519224255) translate(21.76543209876543 44.44444444444444)"/><use xlink:href="#ae" transform="matrix(1,0,0,1,3141.2839182738467,899.8285519224255) translate(5.067901234567898 71.11111111111111)"/><use xlink:href="#ar" transform="matrix(1,0,0,1,3141.2839182738467,899.8285519224255) translate(64.2037037037037 71.11111111111111)"/><use xlink:href="#i" transform="matrix(1,0,0,1,3141.2839182738467,899.8285519224255) translate(95.0679012345679 71.11111111111111)"/><use xlink:href="#as" transform="matrix(1,0,0,1,3141.2839182738467,899.8285519224255) translate(41.425925925925924 97.77777777777777)"/></g><path d="M3299.8 1149.32c0 41.86-41.74 75.8-93.24 75.8-51.5 0-93.25-33.94-93.25-75.8s41.76-75.8 93.26-75.8c51.5 0 93.25 33.94 93.25 75.8z" stroke="#000" stroke-width="3" fill="#fff"/><g><use xlink:href="#at" transform="matrix(1,0,0,1,3141.2839182738467,1103.8458902080697) translate(19.29629629629629 17.77777777777778)"/><use xlink:href="#au" transform="matrix(1,0,0,1,3141.2839182738467,1103.8458902080697) translate(72.32098765432099 17.77777777777778)"/><use xlink:href="#av" transform="matrix(1,0,0,1,3141.2839182738467,1103.8458902080697) translate(16.765432098765437 44.44444444444444)"/><use xlink:href="#aw" transform="matrix(1,0,0,1,3141.2839182738467,1103.8458902080697) translate(89.54320987654322 44.44444444444444)"/><use xlink:href="#K" transform="matrix(1,0,0,1,3141.2839182738467,1103.8458902080697) translate(1.3641975308642031 71.11111111111111)"/><use xlink:href="#ax" transform="matrix(1,0,0,1,3141.2839182738467,1103.8458902080697) translate(38.40123456790124 71.11111111111111)"/><use xlink:href="#k" transform="matrix(1,0,0,1,3141.2839182738467,1103.8458902080697) translate(34.635802469135804 97.77777777777777)"/></g><path d="M3299.8 537.27c0 41.86-41.74 75.8-93.24 75.8-51.5 0-93.25-33.94-93.25-75.8s41.76-75.8 93.26-75.8c51.5 0 93.25 33.94 93.25 75.8z" stroke="#000" stroke-width="3" fill="#fff"/><g><use xlink:href="#ay" transform="matrix(1,0,0,1,3141.2839182738467,491.7938753511375) translate(28.52469135802469 17.77777777777778)"/><use xlink:href="#az" transform="matrix(1,0,0,1,3141.2839182738467,491.7938753511375) translate(31.580246913580247 44.44444444444444)"/><use xlink:href="#aA" transform="matrix(1,0,0,1,3141.2839182738467,491.7938753511375) translate(10.037037037037045 71.11111111111111)"/><use xlink:href="#aB" transform="matrix(1,0,0,1,3141.2839182738467,491.7938753511375) translate(76.64197530864197 71.11111111111111)"/><use xlink:href="#aC" transform="matrix(1,0,0,1,3141.2839182738467,491.7938753511375) translate(43.925925925925924 97.77777777777777)"/></g><path d="M3930.13 733.95c0 20.27-16.44 36.7-36.7 36.7-20.3 0-36.72-16.43-36.72-36.7 0-20.28 16.44-36.7 36.72-36.7 20.27 0 36.7 16.42 36.7 36.7z" stroke="#333" stroke-width="3" fill="#fff"/><path d="M3893.42 770.66v123.2c0 2.77 1.07 6.97 2.4 9.4l71.02 130.03m-73.42-134.43L3820 1033.3m0-225.93h146.84" stroke="#333" stroke-width="3" fill="none"/><path d="M3820 702.24c0-2.76 2.24-5 5-5h136.84c2.76 0 5 2.24 5 5v348.05c0 2.75-2.24 5-5 5H3825c-2.76 0-5-2.25-5-5z" fill="none"/><g><use xlink:href="#aj" transform="matrix(1,0,0,1,3740,1033.2854171279184) translate(110.07716049382717 12.222222222222221)"/></g><path d="M3579.57 741.3c0 41.85-41.75 75.78-93.25 75.78s-93.25-33.93-93.25-75.8c0-41.85 41.75-75.8 93.25-75.8s93.25 33.95 93.25 75.8z" stroke="#000" stroke-width="3" fill="#fff"/><g><use xlink:href="#aD" transform="matrix(1,0,0,1,3421.0433381805537,695.8112136367815) translate(37.166666666666664 17.77777777777778)"/><use xlink:href="#aE" transform="matrix(1,0,0,1,3421.0433381805537,695.8112136367815) translate(11.888888888888886 44.44444444444444)"/><use xlink:href="#aF" transform="matrix(1,0,0,1,3421.0433381805537,695.8112136367815) translate(6.302469135802468 71.11111111111111)"/><use xlink:href="#aG" transform="matrix(1,0,0,1,3421.0433381805537,695.8112136367815) translate(30.993827160493826 71.11111111111111)"/><use xlink:href="#p" transform="matrix(1,0,0,1,3421.0433381805537,695.8112136367815) translate(18.709876543209873 97.77777777777777)"/></g><path d="M3579.57 1042.58c0 41.86-41.75 75.8-93.25 75.8s-93.25-33.94-93.25-75.8 41.75-75.8 93.25-75.8 93.25 33.94 93.25 75.8z" stroke="#000" stroke-width="3" fill="#fff"/><g><use xlink:href="#aD" transform="matrix(1,0,0,1,3421.0433381805537,997.0999763647922) translate(37.166666666666664 17.77777777777778)"/><use xlink:href="#aE" transform="matrix(1,0,0,1,3421.0433381805537,997.0999763647922) translate(11.888888888888886 44.44444444444444)"/><use xlink:href="#aF" transform="matrix(1,0,0,1,3421.0433381805537,997.0999763647922) translate(13.679012345679013 71.11111111111111)"/><use xlink:href="#o" transform="matrix(1,0,0,1,3421.0433381805537,997.0999763647922) translate(38.37037037037037 71.11111111111111)"/><use xlink:href="#p" transform="matrix(1,0,0,1,3421.0433381805537,997.0999763647922) translate(18.709876543209873 97.77777777777777)"/></g><path d="M3891.46 874.9l-295.34-127.13M3891.45 874.88l3.22 1.4" stroke="#333" fill="none"/><path d="M3582.56 741.93l14.94 1.38-3.67 8.53z" stroke="#333" fill="#333"/><path d="M3891.48 875.32l-295.98 159.5M3891.47 875.33l3.1-1.67" stroke="#333" fill="none"/><path d="M3582.5 1041.8l10.36-10.84 4.4 8.16z" stroke="#333" fill="#333"/><path d="M3637.05 2580.47c0 41.86-41.75 75.8-93.26 75.8-51.5 0-93.26-33.94-93.26-75.8s41.75-75.8 93.25-75.8 93.25 33.94 93.25 75.8z" stroke="#000" stroke-width="3" fill="#fff"/><g><use xlink:href="#aD" transform="matrix(1,0,0,1,3478.517247200648,2534.995770268977) translate(37.166666666666664 17.77777777777778)"/><use xlink:href="#aH" transform="matrix(1,0,0,1,3478.517247200648,2534.995770268977) translate(0.16049382716049365 44.44444444444444)"/><use xlink:href="#aF" transform="matrix(1,0,0,1,3478.517247200648,2534.995770268977) translate(13.679012345679013 71.11111111111111)"/><use xlink:href="#o" transform="matrix(1,0,0,1,3478.517247200648,2534.995770268977) translate(38.37037037037037 71.11111111111111)"/><use xlink:href="#p" transform="matrix(1,0,0,1,3478.517247200648,2534.995770268977) translate(18.709876543209873 97.77777777777777)"/></g><path d="M4071.53 2238.15L3651.4 2570.3M4071.52 2238.16l2.75-2.18" stroke="#333" fill="none"/><path d="M3639.82 2579.47l8.3-12.48 5.76 7.26z" stroke="#333" fill="#333"/><path d="M3018.44 448c0-4.42 3.58-8 8-8h652.87c4.43 0 8 3.58 8 8v994.6c0 4.43-3.57 8-8 8h-652.86c-4.42 0-8-3.57-8-8zM3065.06 1843.15c0-4.42 3.58-8 8-8h660.1c4.4 0 8 3.58 8 8v856.58c0 4.42-3.6 8-8 8h-660.1c-4.42 0-8-3.58-8-8zM1648.1 1135.72c0-4.42 3.6-8 8-8h566.84c4.4 0 8 3.58 8 8v1225.2c0 4.4-3.6 8-8 8H1656.1c-4.4 0-8-3.6-8-8z" stroke="#333" stroke-width="3" fill-opacity="0"/><path d="M3158.32 1480.1c0-4.43 3.58-8 8-8h358.63c4.42 0 8 3.57 8 8v59.78c0 4.42-3.58 8-8 8h-358.63c-4.42 0-8-3.58-8-8z" stroke="#000" stroke-opacity="0" fill="#fff" fill-opacity="0"/><g><use xlink:href="#aI" transform="matrix(1,0,0,1,3178.3159393467295,1472.087711317627) translate(31.018518518518533 35.55555555555555)"/><use xlink:href="#aJ" transform="matrix(1,0,0,1,3178.3159393467295,1472.087711317627) translate(145.21604938271605 35.55555555555555)"/><use xlink:href="#aK" transform="matrix(1,0,0,1,3178.3159393467295,1472.087711317627) translate(182.2530864197531 35.55555555555555)"/><use xlink:href="#aL" transform="matrix(1,0,0,1,3178.3159393467295,1472.087711317627) translate(93.48765432098766 88.88888888888889)"/></g><path d="M3299.8 1353.34c0 41.86-41.74 75.8-93.24 75.8-51.5 0-93.25-33.94-93.25-75.8s41.76-75.8 93.26-75.8c51.5 0 93.25 33.94 93.25 75.8z" stroke="#000" stroke-width="3" fill="#fff"/><g><use xlink:href="#aM" transform="matrix(1,0,0,1,3141.2839182738467,1307.8632284937137) translate(16.395061728395056 23.27777777777778)"/><use xlink:href="#aN" transform="matrix(1,0,0,1,3141.2839182738467,1307.8632284937137) translate(2.6296296296296333 49.94444444444445)"/><use xlink:href="#aO" transform="matrix(1,0,0,1,3141.2839182738467,1307.8632284937137) translate(72.81481481481481 49.94444444444445)"/><use xlink:href="#aP" transform="matrix(1,0,0,1,3141.2839182738467,1307.8632284937137) translate(32.16666666666667 76.61111111111111)"/><use xlink:href="#as" transform="matrix(1,0,0,1,3141.2839182738467,1307.8632284937137) translate(50.68518518518519 76.61111111111111)"/></g><path d="M2813.76 868.84l289.46 470.55M2813.77 868.85l-1.84-3" stroke="#333" fill="none"/><path d="M3110.96 1351.96l-11.42-9.72 7.9-4.86z" stroke="#333" fill="#333"/><path d="M3339 2580.47c0 41.86-41.76 75.8-93.26 75.8-51.5 0-93.25-33.94-93.25-75.8s41.74-75.8 93.24-75.8c51.5 0 93.25 33.94 93.25 75.8z" stroke="#000" stroke-width="3" fill="#fff"/><g><use xlink:href="#l" transform="matrix(1,0,0,1,3180.463560089342,2534.995770268977) translate(14.543209876543216 36.611111111111114)"/><use xlink:href="#aQ" transform="matrix(1,0,0,1,3180.463560089342,2534.995770268977) translate(68.30864197530865 36.611111111111114)"/><use xlink:href="#aR" transform="matrix(1,0,0,1,3180.463560089342,2534.995770268977) translate(31.024691358024697 63.27777777777778)"/></g><path d="M2815.27 2238.2l324.24 330.58M2815.28 2238.2l-2.46-2.5" stroke="#333" fill="none"/><path d="M3149.85 2579.32l-13.3-6.94 6.62-6.5z" stroke="#333" fill="#333"/><path d="M3215.8 2736.4c0-4.4 3.57-8 8-8h358.62c4.42 0 8 3.6 8 8v59.8c0 4.42-3.58 8-8 8H3223.8c-4.43 0-8-3.58-8-8z" stroke="#000" stroke-opacity="0" fill="#fff" fill-opacity="0"/><g><use xlink:href="#aI" transform="matrix(1,0,0,1,3235.789848366823,2728.408169695904) translate(31.018518518518533 35.55555555555555)"/><use xlink:href="#aJ" transform="matrix(1,0,0,1,3235.789848366823,2728.408169695904) translate(145.21604938271605 35.55555555555555)"/><use xlink:href="#aK" transform="matrix(1,0,0,1,3235.789848366823,2728.408169695904) translate(182.2530864197531 35.55555555555555)"/><use xlink:href="#aL" transform="matrix(1,0,0,1,3235.789848366823,2728.408169695904) translate(93.48765432098766 88.88888888888889)"/></g><path d="M1752.2 2398.98c0-4.4 3.6-8 8-8h358.64c4.4 0 8 3.6 8 8v59.8c0 4.42-3.6 8-8 8H1760.2c-4.4 0-8-3.58-8-8z" stroke="#000" stroke-opacity="0" fill="#fff" fill-opacity="0"/><g><use xlink:href="#aI" transform="matrix(1,0,0,1,1772.2038354262775,2390.9835314800857) translate(31.018518518518533 35.55555555555555)"/><use xlink:href="#aJ" transform="matrix(1,0,0,1,1772.2038354262775,2390.9835314800857) translate(145.21604938271605 35.55555555555555)"/><use xlink:href="#aK" transform="matrix(1,0,0,1,1772.2038354262775,2390.9835314800857) translate(182.2530864197531 35.55555555555555)"/><use xlink:href="#aL" transform="matrix(1,0,0,1,1772.2038354262775,2390.9835314800857) translate(93.48765432098766 88.88888888888889)"/></g><defs><path fill="#333" d="M161-211c-63 0-91 46-91 110 0 39 17 65 58 64 38-1 60-20 74-45l40 20C220-23 184 0 125 4 9 13-10-144 57-208c33-50 166-62 196-1 4 8 9 18 11 27l-48 12c-6-24-25-41-55-41" id="aS"/><path fill="#333" d="M69 3c-96 0-34-126-28-193h49L65-57c6 42 62 18 71-6 14-38 17-86 28-127h50L178 0h-47c0-11 4-26 3-33-14 20-30 37-65 36" id="aT"/><path fill="#333" d="M144-137c-1-29-70-35-71-2 16 41 103 10 103 80C176 9 79 16 32-9 18-17 9-31 4-48l44-6c3 32 80 36 82 1-15-42-103-11-103-82 0-77 157-79 161-8" id="aU"/><path fill="#333" d="M72-63c-8 23 5 39 32 30L98-1C54 14 12-6 23-64l18-93H15l7-33h28l24-45h31l-8 45h35l-6 33H90" id="aV"/><path fill="#333" d="M124-194c51 0 84 22 84 74C207-44 167 4 94 4 43 4 11-23 11-74c0-74 41-120 113-120zM99-30c46 0 58-42 58-86 0-27-11-44-37-44-44 0-55 40-57 84-1 27 10 45 36 46" id="aW"/><path fill="#333" d="M255-194c90 0 29 129 24 194h-49l25-136c-7-39-53-14-60 9-12 38-18 85-28 127h-49l25-136c2-29-39-23-50-7C69-108 68-47 56 0H6l36-190h48c-1 10-6 24-4 32 12-20 27-36 57-36s46 15 50 41c14-21 29-41 62-41" id="aX"/><path fill="#333" d="M114-194c63-2 87 48 72 110H63c-3 28 1 55 31 54 21-1 32-13 37-29l44 13C160-14 137 4 91 4 41 4 11-22 11-73c0-71 33-119 103-121zm30 77c14-47-50-61-67-22-3 6-6 13-8 22h75" id="aY"/><path fill="#333" d="M84-151c13-25 34-51 72-40l-8 41C67-170 71-64 56 0H6l36-190h47" id="aZ"/><g id="a"><use transform="matrix(0.06790123456790123,0,0,0.06790123456790123,0,0)" xlink:href="#aS"/><use transform="matrix(0.06790123456790123,0,0,0.06790123456790123,17.586419753086417,0)" xlink:href="#aT"/><use transform="matrix(0.06790123456790123,0,0,0.06790123456790123,32.456790123456784,0)" xlink:href="#aU"/><use transform="matrix(0.06790123456790123,0,0,0.06790123456790123,46.03703703703703,0)" xlink:href="#aV"/><use transform="matrix(0.06790123456790123,0,0,0.06790123456790123,54.11728395061728,0)" xlink:href="#aW"/><use transform="matrix(0.06790123456790123,0,0,0.06790123456790123,68.98765432098764,0)" xlink:href="#aX"/><use transform="matrix(0.06790123456790123,0,0,0.06790123456790123,90.71604938271602,0)" xlink:href="#aY"/><use transform="matrix(0.06790123456790123,0,0,0.06790123456790123,104.29629629629628,0)" xlink:href="#aZ"/></g><path d="M125-24c46 0 70-25 89-51l25 16C214-24 183 4 123 4 8 4-5-146 60-208c32-50 158-61 191-5 5 7 9 14 11 22l-32 10c-9-28-33-43-69-43-74 0-108 51-108 125 0 46 24 75 72 75" id="ba"/><path d="M66-151c12-25 30-51 66-40l-6 26C45-176 58-65 38 0H6l36-190h30" id="bb"/><path d="M111-194c62-3 86 47 72 106H45c-7 38 6 69 45 68 27-1 43-14 53-32l24 11C152-15 129 4 87 4 38 3 12-23 12-71c0-70 32-119 99-123zm44 81c14-66-71-72-95-28-4 8-8 17-11 28h106" id="bc"/><path d="M165-48c-4 18 1 34 23 27l-3 20c-29 8-62 0-52-35h-2C116-14 99 4 63 4 30 4 8-16 8-49c0-68 71-67 138-67 10-26 0-56-31-54-26 1-42 9-47 31l-32-5c8-67 160-71 144 15-5 28-9 54-15 81zM42-50c3 52 80 24 89-6 7-12 7-24 11-38-47 1-103-4-100 44" id="bd"/><path d="M51-54c-9 22 5 41 31 30L79-1C43 14 10-4 19-52l22-115H19l5-23h22l19-43h21l-9 43h35l-4 23H73" id="be"/><g id="b"><use transform="matrix(0.06172839506172839,0,0,0.06172839506172839,0,0)" xlink:href="#ba"/><use transform="matrix(0.06172839506172839,0,0,0.06172839506172839,15.987654320987653,0)" xlink:href="#bb"/><use transform="matrix(0.06172839506172839,0,0,0.06172839506172839,23.333333333333332,0)" xlink:href="#bc"/><use transform="matrix(0.06172839506172839,0,0,0.06172839506172839,35.67901234567901,0)" xlink:href="#bd"/><use transform="matrix(0.06172839506172839,0,0,0.06172839506172839,48.02469135802469,0)" xlink:href="#be"/><use transform="matrix(0.06172839506172839,0,0,0.06172839506172839,54.19753086419753,0)" xlink:href="#bc"/></g><path d="M67-158c22-48 132-52 116 29L158 0h-32l25-140c3-38-53-32-70-12C52-117 51-52 38 0H6l36-190h30" id="bf"/><g id="c"><use transform="matrix(0.06172839506172839,0,0,0.06172839506172839,0,0)" xlink:href="#bd"/><use transform="matrix(0.06172839506172839,0,0,0.06172839506172839,12.345679012345679,0)" xlink:href="#bf"/></g><path d="M44-68c0 29 11 47 38 47 30 0 42-19 51-41l28 9C148-21 126 4 82 4 31 4 10-29 12-85c3-77 74-140 146-93 12 8 15 23 18 40l-31 5c-1-22-13-36-36-36-52 0-65 49-65 101" id="bg"/><path d="M30-147c31-64 166-65 159 27C183-49 158 1 86 4 9 8 1-88 30-147zM88-20c53 0 68-48 68-100 0-31-11-51-44-50-52 1-68 46-68 97 0 32 13 53 44 53" id="bh"/><path d="M67 3c-93-2-31-127-26-193h32L48-50c-3 39 53 32 70 12 30-34 30-101 43-152h32L157 0h-30c1-10 6-24 4-33-14 20-29 37-64 36" id="bi"/><g id="d"><use transform="matrix(0.06172839506172839,0,0,0.06172839506172839,0,0)" xlink:href="#bd"/><use transform="matrix(0.06172839506172839,0,0,0.06172839506172839,12.345679012345679,0)" xlink:href="#bg"/><use transform="matrix(0.06172839506172839,0,0,0.06172839506172839,23.45679012345679,0)" xlink:href="#bg"/><use transform="matrix(0.06172839506172839,0,0,0.06172839506172839,34.5679012345679,0)" xlink:href="#bh"/><use transform="matrix(0.06172839506172839,0,0,0.06172839506172839,46.913580246913575,0)" xlink:href="#bi"/><use transform="matrix(0.06172839506172839,0,0,0.06172839506172839,59.25925925925925,0)" xlink:href="#bf"/><use transform="matrix(0.06172839506172839,0,0,0.06172839506172839,71.60493827160494,0)" xlink:href="#be"/></g><path d="M11 0l48-248h34L50-27h125l-5 27H11" id="bj"/><path d="M103-194c29 0 47 14 56 36 2-11 5-23 8-32h30L160-5C157 61 82 97 21 62 9 55 4 45 1 30l28-7c7 42 83 31 92-3 4-16 9-38 13-55-13 20-29 36-62 36-40 0-60-25-60-64 0-71 23-131 91-131zm4 24c-53 0-58 54-61 104-2 27 10 44 36 44 49 0 65-50 67-102 1-29-15-46-42-46" id="bk"/><path d="M50-231l6-30h32l-6 30H50zM6 0l37-190h31L37 0H6" id="bl"/><path d="M58-38C53-5 46 26 28 46H7C19 32 27 18 32 0H17l7-38h34" id="bm"/><g id="e"><use transform="matrix(0.06172839506172839,0,0,0.06172839506172839,0,0)" xlink:href="#bj"/><use transform="matrix(0.06172839506172839,0,0,0.06172839506172839,12.345679012345679,0)" xlink:href="#bh"/><use transform="matrix(0.06172839506172839,0,0,0.06172839506172839,24.691358024691358,0)" xlink:href="#bk"/><use transform="matrix(0.06172839506172839,0,0,0.06172839506172839,37.03703703703704,0)" xlink:href="#bl"/><use transform="matrix(0.06172839506172839,0,0,0.06172839506172839,41.91358024691358,0)" xlink:href="#bf"/><use transform="matrix(0.06172839506172839,0,0,0.06172839506172839,54.25925925925926,0)" xlink:href="#bm"/></g><g id="f"><use transform="matrix(0.06172839506172839,0,0,0.06172839506172839,0,0)" xlink:href="#bj"/><use transform="matrix(0.06172839506172839,0,0,0.06172839506172839,12.345679012345679,0)" xlink:href="#bh"/><use transform="matrix(0.06172839506172839,0,0,0.06172839506172839,24.691358024691358,0)" xlink:href="#bk"/><use transform="matrix(0.06172839506172839,0,0,0.06172839506172839,37.03703703703704,0)" xlink:href="#bh"/><use transform="matrix(0.06172839506172839,0,0,0.06172839506172839,49.382716049382715,0)" xlink:href="#bi"/><use transform="matrix(0.06172839506172839,0,0,0.06172839506172839,61.72839506172839,0)" xlink:href="#be"/></g><path d="M137 0h-34L2-248h35l83 218 83-218h36" id="bn"/><path d="M24-231v-30h32v30H24zM24 0v-190h32V0H24" id="bo"/><path d="M100-194c63 0 86 42 84 106H49c0 40 14 67 53 68 26 1 43-12 49-29l28 8c-11 28-37 45-77 45C44 4 14-33 15-96c1-61 26-98 85-98zm52 81c6-60-76-77-97-28-3 7-6 17-6 28h103" id="bp"/><path d="M206 0h-36l-40-164L89 0H53L-1-190h32L70-26l43-164h34l41 164 42-164h31" id="bq"/><g id="h"><use transform="matrix(0.06172839506172839,0,0,0.06172839506172839,0,0)" xlink:href="#bn"/><use transform="matrix(0.06172839506172839,0,0,0.06172839506172839,14.382716049382715,0)" xlink:href="#bo"/><use transform="matrix(0.06172839506172839,0,0,0.06172839506172839,19.25925925925926,0)" xlink:href="#bp"/><use transform="matrix(0.06172839506172839,0,0,0.06172839506172839,31.604938271604937,0)" xlink:href="#bq"/></g><path d="M59-47c-2 24 18 29 38 22v24C64 9 27 4 27-40v-127H5v-23h24l9-43h21v43h35v23H59v120" id="br"/><path d="M106-169C34-169 62-67 57 0H25v-261h32l-1 103c12-21 28-36 61-36 89 0 53 116 60 194h-32v-121c2-32-8-49-39-48" id="bs"/><g id="i"><use transform="matrix(0.06172839506172839,0,0,0.06172839506172839,0,0)" xlink:href="#br"/><use transform="matrix(0.06172839506172839,0,0,0.06172839506172839,6.172839506172839,0)" xlink:href="#bs"/><use transform="matrix(0.06172839506172839,0,0,0.06172839506172839,18.51851851851852,0)" xlink:href="#bp"/></g><path d="M96-169c-40 0-48 33-48 73s9 75 48 75c24 0 41-14 43-38l32 2c-6 37-31 61-74 61-59 0-76-41-82-99-10-93 101-131 147-64 4 7 5 14 7 22l-32 3c-4-21-16-35-41-35" id="bt"/><path d="M84 4C-5 8 30-112 23-190h32v120c0 31 7 50 39 49 72-2 45-101 50-169h31l1 190h-30c-1-10 1-25-2-33-11 22-28 36-60 37" id="bu"/><path d="M135-143c-3-34-86-38-87 0 15 53 115 12 119 90S17 21 10-45l28-5c4 36 97 45 98 0-10-56-113-15-118-90-4-57 82-63 122-42 12 7 21 19 24 35" id="bv"/><path d="M100-194c62-1 85 37 85 99 1 63-27 99-86 99S16-35 15-95c0-66 28-99 85-99zM99-20c44 1 53-31 53-75 0-43-8-75-51-75s-53 32-53 75 10 74 51 75" id="bw"/><path d="M210-169c-67 3-38 105-44 169h-31v-121c0-29-5-50-35-48C34-165 62-65 56 0H25l-1-190h30c1 10-1 24 2 32 10-44 99-50 107 0 11-21 27-35 58-36 85-2 47 119 55 194h-31v-121c0-29-5-49-35-48" id="bx"/><path d="M114-163C36-179 61-72 57 0H25l-1-190h30c1 12-1 29 2 39 6-27 23-49 58-41v29" id="by"/><path d="M47-170H22l-4-78h33" id="bz"/><g id="j"><use transform="matrix(0.06172839506172839,0,0,0.06172839506172839,0,0)" xlink:href="#bt"/><use transform="matrix(0.06172839506172839,0,0,0.06172839506172839,11.11111111111111,0)" xlink:href="#bu"/><use transform="matrix(0.06172839506172839,0,0,0.06172839506172839,23.45679012345679,0)" xlink:href="#bv"/><use transform="matrix(0.06172839506172839,0,0,0.06172839506172839,34.5679012345679,0)" xlink:href="#br"/><use transform="matrix(0.06172839506172839,0,0,0.06172839506172839,40.74074074074074,0)" xlink:href="#bw"/><use transform="matrix(0.06172839506172839,0,0,0.06172839506172839,53.08641975308642,0)" xlink:href="#bx"/><use transform="matrix(0.06172839506172839,0,0,0.06172839506172839,71.5432098765432,0)" xlink:href="#bp"/><use transform="matrix(0.06172839506172839,0,0,0.06172839506172839,83.88888888888889,0)" xlink:href="#by"/><use transform="matrix(0.06172839506172839,0,0,0.06172839506172839,91.23456790123457,0)" xlink:href="#bz"/><use transform="matrix(0.06172839506172839,0,0,0.06172839506172839,95.4320987654321,0)" xlink:href="#bv"/></g><path d="M145-31C134-9 116 4 85 4 32 4 16-35 15-94c0-59 17-99 70-100 32-1 48 14 60 33 0-11-1-24 2-32h30l-1 268h-32zM93-21c41 0 51-33 51-76s-8-73-50-73c-40 0-46 35-46 75s5 74 45 74" id="bA"/><g id="k"><use transform="matrix(0.06172839506172839,0,0,0.06172839506172839,0,0)" xlink:href="#bA"/><use transform="matrix(0.06172839506172839,0,0,0.06172839506172839,12.345679012345679,0)" xlink:href="#bu"/><use transform="matrix(0.06172839506172839,0,0,0.06172839506172839,24.691358024691358,0)" xlink:href="#bp"/><use transform="matrix(0.06172839506172839,0,0,0.06172839506172839,37.03703703703704,0)" xlink:href="#bu"/><use transform="matrix(0.06172839506172839,0,0,0.06172839506172839,49.382716049382715,0)" xlink:href="#bp"/></g><g id="l"><use transform="matrix(0.06172839506172839,0,0,0.06172839506172839,0,0)" xlink:href="#bn"/><use transform="matrix(0.06172839506172839,0,0,0.06172839506172839,14.382716049382715,0)" xlink:href="#bo"/><use transform="matrix(0.06172839506172839,0,0,0.06172839506172839,19.25925925925926,0)" xlink:href="#bp"/><use transform="matrix(0.06172839506172839,0,0,0.06172839506172839,31.604938271604937,0)" xlink:href="#bq"/></g><path d="M141-36C126-15 110 5 73 4 37 3 15-17 15-53c-1-64 63-63 125-63 3-35-9-54-41-54-24 1-41 7-42 31l-33-3c5-37 33-52 76-52 45 0 72 20 72 64v82c-1 20 7 32 28 27v20c-31 9-61-2-59-35zM48-53c0 20 12 33 32 33 41-3 63-29 60-74-43 2-92-5-92 41" id="bB"/><path d="M117-194c89-4 53 116 60 194h-32v-121c0-31-8-49-39-48C34-167 62-67 57 0H25l-1-190h30c1 10-1 24 2 32 11-22 29-35 61-36" id="bC"/><path d="M85-194c31 0 48 13 60 33l-1-100h32l1 261h-30c-2-10 0-23-3-31C134-8 116 4 85 4 32 4 16-35 15-94c0-66 23-100 70-100zm9 24c-40 0-46 34-46 75 0 40 6 74 45 74 42 0 51-32 51-76 0-42-9-74-50-73" id="bD"/><g id="m"><use transform="matrix(0.06172839506172839,0,0,0.06172839506172839,0,0)" xlink:href="#bB"/><use transform="matrix(0.06172839506172839,0,0,0.06172839506172839,12.345679012345679,0)" xlink:href="#bC"/><use transform="matrix(0.06172839506172839,0,0,0.06172839506172839,24.691358024691358,0)" xlink:href="#bD"/></g><path d="M212-179c-10-28-35-45-73-45-59 0-87 40-87 99 0 60 29 101 89 101 43 0 62-24 78-52l27 14C228-24 195 4 139 4 59 4 22-46 18-125c-6-104 99-153 187-111 19 9 31 26 39 46" id="bE"/><path d="M101-234c-31-9-42 10-38 44h38v23H63V0H32v-167H5v-23h27c-7-52 17-82 69-68v24" id="bF"/><g id="n"><use transform="matrix(0.06172839506172839,0,0,0.06172839506172839,0,0)" xlink:href="#bE"/><use transform="matrix(0.06172839506172839,0,0,0.06172839506172839,15.987654320987653,0)" xlink:href="#bw"/><use transform="matrix(0.06172839506172839,0,0,0.06172839506172839,28.333333333333332,0)" xlink:href="#bC"/><use transform="matrix(0.06172839506172839,0,0,0.06172839506172839,40.67901234567901,0)" xlink:href="#bF"/><use transform="matrix(0.06172839506172839,0,0,0.06172839506172839,46.851851851851855,0)" xlink:href="#bo"/><use transform="matrix(0.06172839506172839,0,0,0.06172839506172839,51.7283950617284,0)" xlink:href="#by"/><use transform="matrix(0.06172839506172839,0,0,0.06172839506172839,59.074074074074076,0)" xlink:href="#bx"/></g><path d="M115-194c55 1 70 41 70 98S169 2 115 4C84 4 66-9 55-30l1 105H24l-1-265h31l2 30c10-21 28-34 59-34zm-8 174c40 0 45-34 45-75s-6-73-45-74c-42 0-51 32-51 76 0 43 10 73 51 73" id="bG"/><path d="M177-190C167-65 218 103 67 71c-23-6-38-20-44-43l32-5c15 47 100 32 89-28v-30C133-14 115 1 83 1 29 1 15-40 15-95c0-56 16-97 71-98 29-1 48 16 59 35 1-10 0-23 2-32h30zM94-22c36 0 50-32 50-73 0-42-14-75-50-75-39 0-46 34-46 75s6 73 46 73" id="bH"/><g id="o"><use transform="matrix(0.06172839506172839,0,0,0.06172839506172839,0,0)" xlink:href="#bG"/><use transform="matrix(0.06172839506172839,0,0,0.06172839506172839,12.345679012345679,0)" xlink:href="#bp"/><use transform="matrix(0.06172839506172839,0,0,0.06172839506172839,24.691358024691358,0)" xlink:href="#bC"/><use transform="matrix(0.06172839506172839,0,0,0.06172839506172839,37.03703703703704,0)" xlink:href="#bD"/><use transform="matrix(0.06172839506172839,0,0,0.06172839506172839,49.382716049382715,0)" xlink:href="#bo"/><use transform="matrix(0.06172839506172839,0,0,0.06172839506172839,54.25925925925926,0)" xlink:href="#bC"/><use transform="matrix(0.06172839506172839,0,0,0.06172839506172839,66.60493827160494,0)" xlink:href="#bH"/></g><path d="M24 0v-261h32V0H24" id="bI"/><path d="M108 0H70L1-190h34L89-25l56-165h34" id="bJ"/><g id="p"><use transform="matrix(0.06172839506172839,0,0,0.06172839506172839,0,0)" xlink:href="#bD"/><use transform="matrix(0.06172839506172839,0,0,0.06172839506172839,12.345679012345679,0)" xlink:href="#bp"/><use transform="matrix(0.06172839506172839,0,0,0.06172839506172839,24.691358024691358,0)" xlink:href="#bI"/><use transform="matrix(0.06172839506172839,0,0,0.06172839506172839,29.5679012345679,0)" xlink:href="#bo"/><use transform="matrix(0.06172839506172839,0,0,0.06172839506172839,34.44444444444444,0)" xlink:href="#bJ"/><use transform="matrix(0.06172839506172839,0,0,0.06172839506172839,45.55555555555556,0)" xlink:href="#bp"/><use transform="matrix(0.06172839506172839,0,0,0.06172839506172839,57.901234567901234,0)" xlink:href="#by"/><use transform="matrix(0.06172839506172839,0,0,0.06172839506172839,65.24691358024691,0)" xlink:href="#bo"/><use transform="matrix(0.06172839506172839,0,0,0.06172839506172839,70.12345679012346,0)" xlink:href="#bp"/><use transform="matrix(0.06172839506172839,0,0,0.06172839506172839,82.46913580246914,0)" xlink:href="#bv"/></g><g id="q"><use transform="matrix(0.06172839506172839,0,0,0.06172839506172839,0,0)" xlink:href="#bE"/><use transform="matrix(0.06172839506172839,0,0,0.06172839506172839,15.987654320987653,0)" xlink:href="#bw"/><use transform="matrix(0.06172839506172839,0,0,0.06172839506172839,28.333333333333332,0)" xlink:href="#bC"/><use transform="matrix(0.06172839506172839,0,0,0.06172839506172839,40.67901234567901,0)" xlink:href="#bC"/><use transform="matrix(0.06172839506172839,0,0,0.06172839506172839,53.02469135802469,0)" xlink:href="#bp"/><use transform="matrix(0.06172839506172839,0,0,0.06172839506172839,65.37037037037037,0)" xlink:href="#bt"/><use transform="matrix(0.06172839506172839,0,0,0.06172839506172839,76.48148148148148,0)" xlink:href="#br"/></g><g id="r"><use transform="matrix(0.06172839506172839,0,0,0.06172839506172839,0,0)" xlink:href="#bt"/><use transform="matrix(0.06172839506172839,0,0,0.06172839506172839,11.11111111111111,0)" xlink:href="#bu"/><use transform="matrix(0.06172839506172839,0,0,0.06172839506172839,23.45679012345679,0)" xlink:href="#bv"/><use transform="matrix(0.06172839506172839,0,0,0.06172839506172839,34.5679012345679,0)" xlink:href="#br"/><use transform="matrix(0.06172839506172839,0,0,0.06172839506172839,40.74074074074074,0)" xlink:href="#bw"/><use transform="matrix(0.06172839506172839,0,0,0.06172839506172839,53.08641975308642,0)" xlink:href="#bx"/><use transform="matrix(0.06172839506172839,0,0,0.06172839506172839,71.5432098765432,0)" xlink:href="#bp"/><use transform="matrix(0.06172839506172839,0,0,0.06172839506172839,83.88888888888889,0)" xlink:href="#by"/><use transform="matrix(0.06172839506172839,0,0,0.06172839506172839,91.23456790123457,0)" xlink:href="#bv"/></g><g id="s"><use transform="matrix(0.06172839506172839,0,0,0.06172839506172839,0,0)" xlink:href="#br"/><use transform="matrix(0.06172839506172839,0,0,0.06172839506172839,6.172839506172839,0)" xlink:href="#bw"/></g><path d="M16-82v-28h88v28H16" id="bK"/><g id="t"><use transform="matrix(0.06172839506172839,0,0,0.06172839506172839,0,0)" xlink:href="#bv"/><use transform="matrix(0.06172839506172839,0,0,0.06172839506172839,11.11111111111111,0)" xlink:href="#bs"/><use transform="matrix(0.06172839506172839,0,0,0.06172839506172839,23.45679012345679,0)" xlink:href="#bw"/><use transform="matrix(0.06172839506172839,0,0,0.06172839506172839,35.80246913580247,0)" xlink:href="#bG"/><use transform="matrix(0.06172839506172839,0,0,0.06172839506172839,48.148148148148145,0)" xlink:href="#bK"/><use transform="matrix(0.06172839506172839,0,0,0.06172839506172839,55.49382716049382,0)" xlink:href="#bw"/><use transform="matrix(0.06172839506172839,0,0,0.06172839506172839,67.8395061728395,0)" xlink:href="#bq"/><use transform="matrix(0.06172839506172839,0,0,0.06172839506172839,83.82716049382717,0)" xlink:href="#bC"/><use transform="matrix(0.06172839506172839,0,0,0.06172839506172839,96.17283950617285,0)" xlink:href="#bp"/><use transform="matrix(0.06172839506172839,0,0,0.06172839506172839,108.51851851851853,0)" xlink:href="#by"/></g><g id="u"><use transform="matrix(0.06172839506172839,0,0,0.06172839506172839,0,0)" xlink:href="#bJ"/><use transform="matrix(0.06172839506172839,0,0,0.06172839506172839,11.11111111111111,0)" xlink:href="#bo"/><use transform="matrix(0.06172839506172839,0,0,0.06172839506172839,15.987654320987653,0)" xlink:href="#bB"/></g><g id="v"><use transform="matrix(0.06172839506172839,0,0,0.06172839506172839,0,0)" xlink:href="#bB"/><use transform="matrix(0.06172839506172839,0,0,0.06172839506172839,12.345679012345679,0)" xlink:href="#bG"/><use transform="matrix(0.06172839506172839,0,0,0.06172839506172839,24.691358024691358,0)" xlink:href="#bG"/></g><g id="w"><use transform="matrix(0.06172839506172839,0,0,0.06172839506172839,0,0)" xlink:href="#br"/><use transform="matrix(0.06172839506172839,0,0,0.06172839506172839,6.172839506172839,0)" xlink:href="#bw"/></g><g id="x"><use transform="matrix(0.06172839506172839,0,0,0.06172839506172839,0,0)" xlink:href="#bB"/><use transform="matrix(0.06172839506172839,0,0,0.06172839506172839,12.345679012345679,0)" xlink:href="#bG"/><use transform="matrix(0.06172839506172839,0,0,0.06172839506172839,24.691358024691358,0)" xlink:href="#bG"/></g><g id="y"><use transform="matrix(0.06172839506172839,0,0,0.06172839506172839,0,0)" xlink:href="#bt"/><use transform="matrix(0.06172839506172839,0,0,0.06172839506172839,11.11111111111111,0)" xlink:href="#bB"/><use transform="matrix(0.06172839506172839,0,0,0.06172839506172839,23.45679012345679,0)" xlink:href="#bI"/><use transform="matrix(0.06172839506172839,0,0,0.06172839506172839,28.333333333333336,0)" xlink:href="#bI"/></g><path d="M30 0v-248h187v28H63v79h144v27H63v87h162V0H30" id="bL"/><path d="M0 4l72-265h28L28 4H0" id="bM"/><g id="z"><use transform="matrix(0.06172839506172839,0,0,0.06172839506172839,0,0)" xlink:href="#bL"/><use transform="matrix(0.06172839506172839,0,0,0.06172839506172839,14.814814814814813,0)" xlink:href="#bC"/><use transform="matrix(0.06172839506172839,0,0,0.06172839506172839,27.160493827160494,0)" xlink:href="#br"/><use transform="matrix(0.06172839506172839,0,0,0.06172839506172839,33.333333333333336,0)" xlink:href="#bp"/><use transform="matrix(0.06172839506172839,0,0,0.06172839506172839,45.67901234567901,0)" xlink:href="#by"/><use transform="matrix(0.06172839506172839,0,0,0.06172839506172839,53.02469135802469,0)" xlink:href="#bM"/><use transform="matrix(0.06172839506172839,0,0,0.06172839506172839,59.19753086419753,0)" xlink:href="#bL"/><use transform="matrix(0.06172839506172839,0,0,0.06172839506172839,74.01234567901234,0)" xlink:href="#bD"/><use transform="matrix(0.06172839506172839,0,0,0.06172839506172839,86.35802469135803,0)" xlink:href="#bo"/><use transform="matrix(0.06172839506172839,0,0,0.06172839506172839,91.23456790123457,0)" xlink:href="#br"/></g><g id="A"><use transform="matrix(0.06172839506172839,0,0,0.06172839506172839,0,0)" xlink:href="#bG"/><use transform="matrix(0.06172839506172839,0,0,0.06172839506172839,12.345679012345679,0)" xlink:href="#bu"/><use transform="matrix(0.06172839506172839,0,0,0.06172839506172839,24.691358024691358,0)" xlink:href="#by"/><use transform="matrix(0.06172839506172839,0,0,0.06172839506172839,32.03703703703704,0)" xlink:href="#bt"/><use transform="matrix(0.06172839506172839,0,0,0.06172839506172839,43.14814814814815,0)" xlink:href="#bs"/><use transform="matrix(0.06172839506172839,0,0,0.06172839506172839,55.49382716049383,0)" xlink:href="#bB"/><use transform="matrix(0.06172839506172839,0,0,0.06172839506172839,67.8395061728395,0)" xlink:href="#bv"/><use transform="matrix(0.06172839506172839,0,0,0.06172839506172839,78.95061728395062,0)" xlink:href="#bp"/></g><g id="B"><use transform="matrix(0.06172839506172839,0,0,0.06172839506172839,0,0)" xlink:href="#bI"/><use transform="matrix(0.06172839506172839,0,0,0.06172839506172839,4.876543209876543,0)" xlink:href="#bo"/><use transform="matrix(0.06172839506172839,0,0,0.06172839506172839,9.753086419753085,0)" xlink:href="#bv"/><use transform="matrix(0.06172839506172839,0,0,0.06172839506172839,20.864197530864196,0)" xlink:href="#br"/></g><path d="M87 75C49 33 22-17 22-94c0-76 28-126 65-167h31c-38 41-64 92-64 168S80 34 118 75H87" id="bN"/><path d="M68-38c1 34 0 65-14 84H32c9-13 17-26 17-46H33v-38h35" id="bO"/><path d="M179-190L93 31C79 59 56 82 12 73V49c39 6 53-20 64-50L1-190h34L92-34l54-156h33" id="bP"/><g id="C"><use transform="matrix(0.06172839506172839,0,0,0.06172839506172839,0,0)" xlink:href="#bN"/><use transform="matrix(0.06172839506172839,0,0,0.06172839506172839,7.345679012345679,0)" xlink:href="#bo"/><use transform="matrix(0.06172839506172839,0,0,0.06172839506172839,12.222222222222221,0)" xlink:href="#br"/><use transform="matrix(0.06172839506172839,0,0,0.06172839506172839,18.39506172839506,0)" xlink:href="#bp"/><use transform="matrix(0.06172839506172839,0,0,0.06172839506172839,30.74074074074074,0)" xlink:href="#bx"/><use transform="matrix(0.06172839506172839,0,0,0.06172839506172839,49.19753086419753,0)" xlink:href="#bO"/><use transform="matrix(0.06172839506172839,0,0,0.06172839506172839,55.370370370370374,0)" xlink:href="#bA"/><use transform="matrix(0.06172839506172839,0,0,0.06172839506172839,67.71604938271605,0)" xlink:href="#bu"/><use transform="matrix(0.06172839506172839,0,0,0.06172839506172839,80.06172839506173,0)" xlink:href="#bB"/><use transform="matrix(0.06172839506172839,0,0,0.06172839506172839,92.40740740740742,0)" xlink:href="#bC"/><use transform="matrix(0.06172839506172839,0,0,0.06172839506172839,104.7530864197531,0)" xlink:href="#br"/><use transform="matrix(0.06172839506172839,0,0,0.06172839506172839,110.92592592592594,0)" xlink:href="#bo"/><use transform="matrix(0.06172839506172839,0,0,0.06172839506172839,115.80246913580248,0)" xlink:href="#br"/><use transform="matrix(0.06172839506172839,0,0,0.06172839506172839,121.97530864197532,0)" xlink:href="#bP"/><use transform="matrix(0.06172839506172839,0,0,0.06172839506172839,131.41975308641975,0)" xlink:href="#bO"/></g><path d="M33-261c38 41 65 92 65 168S71 34 33 75H2C39 34 66-17 66-93S39-220 2-261h31" id="bQ"/><g id="D"><use transform="matrix(0.06172839506172839,0,0,0.06172839506172839,0,0)" xlink:href="#bG"/><use transform="matrix(0.06172839506172839,0,0,0.06172839506172839,12.345679012345679,0)" xlink:href="#by"/><use transform="matrix(0.06172839506172839,0,0,0.06172839506172839,19.691358024691358,0)" xlink:href="#bo"/><use transform="matrix(0.06172839506172839,0,0,0.06172839506172839,24.5679012345679,0)" xlink:href="#bt"/><use transform="matrix(0.06172839506172839,0,0,0.06172839506172839,35.67901234567901,0)" xlink:href="#bp"/><use transform="matrix(0.06172839506172839,0,0,0.06172839506172839,48.02469135802469,0)" xlink:href="#bQ"/></g><g id="E"><use transform="matrix(0.06172839506172839,0,0,0.06172839506172839,0,0)" xlink:href="#bq"/><use transform="matrix(0.06172839506172839,0,0,0.06172839506172839,15.987654320987653,0)" xlink:href="#bs"/><use transform="matrix(0.06172839506172839,0,0,0.06172839506172839,28.333333333333332,0)" xlink:href="#bo"/><use transform="matrix(0.06172839506172839,0,0,0.06172839506172839,33.20987654320987,0)" xlink:href="#bI"/><use transform="matrix(0.06172839506172839,0,0,0.06172839506172839,38.08641975308642,0)" xlink:href="#bp"/></g><g id="F"><use transform="matrix(0.06172839506172839,0,0,0.06172839506172839,0,0)" xlink:href="#bo"/><use transform="matrix(0.06172839506172839,0,0,0.06172839506172839,4.876543209876543,0)" xlink:href="#bC"/></g><g id="G"><use transform="matrix(0.06172839506172839,0,0,0.06172839506172839,0,0)" xlink:href="#bt"/><use transform="matrix(0.06172839506172839,0,0,0.06172839506172839,11.11111111111111,0)" xlink:href="#bB"/><use transform="matrix(0.06172839506172839,0,0,0.06172839506172839,23.45679012345679,0)" xlink:href="#bI"/><use transform="matrix(0.06172839506172839,0,0,0.06172839506172839,28.333333333333336,0)" xlink:href="#bI"/></g><path fill="#333" d="M178-136c88 48 22 151-73 140C49-3 12-15 4-64l51-9c1 50 111 53 115 3-16-63-132-20-133-112 0-93 190-91 199-10l-50 12c-4-41-93-50-97-4 7 38 59 32 89 48" id="bR"/><path fill="#333" d="M150-105c8-23 8-54-22-51-68 7-54 98-72 156H6l50-261h50L85-158c15-20 33-36 66-36 95 0 34 128 28 194h-49" id="bS"/><path fill="#333" d="M156-122c2-23-7-37-28-37-47 0-58 44-58 89 0 24 12 40 36 40 43 0 47-49 50-92zM-8 75l50-265h48c0 10-3 24-3 30 22-50 127-45 121 29-6 73-21 135-92 135-29 0-46-14-55-35L41 75H-8" id="bT"/><path fill="#333" d="M10-72l8-43h92l-9 43H10" id="bU"/><path fill="#333" d="M18-101c0-91 52-150 145-150 68 0 111 34 111 101C274-54 221 4 128 4 59 4 18-33 18-101zm202-32c4-46-15-77-59-77-65 0-88 46-91 108-2 41 22 65 60 65 60 0 84-40 90-96" id="bV"/><path fill="#333" d="M212 0h-52l-8-156L82 0H30L17-190h46l2 145 66-145h53l8 145 60-145h47" id="bW"/><path fill="#333" d="M151-194c95 0 34 128 28 194h-49l25-134c0-29-45-25-59-9C67-111 69-48 56 0H6l36-190h47l-4 32c15-20 33-36 66-36" id="bX"/><g id="H"><use transform="matrix(0.06790123456790123,0,0,0.06790123456790123,0,0)" xlink:href="#bR"/><use transform="matrix(0.06790123456790123,0,0,0.06790123456790123,16.296296296296294,0)" xlink:href="#bS"/><use transform="matrix(0.06790123456790123,0,0,0.06790123456790123,31.166666666666664,0)" xlink:href="#aW"/><use transform="matrix(0.06790123456790123,0,0,0.06790123456790123,46.03703703703703,0)" xlink:href="#bT"/><use transform="matrix(0.06790123456790123,0,0,0.06790123456790123,60.907407407407405,0)" xlink:href="#bU"/><use transform="matrix(0.06790123456790123,0,0,0.06790123456790123,68.98765432098764,0)" xlink:href="#bV"/><use transform="matrix(0.06790123456790123,0,0,0.06790123456790123,87.99999999999999,0)" xlink:href="#bW"/><use transform="matrix(0.06790123456790123,0,0,0.06790123456790123,107.01234567901233,0)" xlink:href="#bX"/><use transform="matrix(0.06790123456790123,0,0,0.06790123456790123,121.8827160493827,0)" xlink:href="#aY"/><use transform="matrix(0.06790123456790123,0,0,0.06790123456790123,135.46296296296293,0)" xlink:href="#aZ"/></g><g id="I"><use transform="matrix(0.06172839506172839,0,0,0.06172839506172839,0,0)" xlink:href="#bL"/><use transform="matrix(0.06172839506172839,0,0,0.06172839506172839,14.814814814814813,0)" xlink:href="#bC"/><use transform="matrix(0.06172839506172839,0,0,0.06172839506172839,27.160493827160494,0)" xlink:href="#br"/><use transform="matrix(0.06172839506172839,0,0,0.06172839506172839,33.333333333333336,0)" xlink:href="#by"/><use transform="matrix(0.06172839506172839,0,0,0.06172839506172839,40.67901234567901,0)" xlink:href="#bP"/></g><g id="J"><use transform="matrix(0.06172839506172839,0,0,0.06172839506172839,0,0)" xlink:href="#bG"/><use transform="matrix(0.06172839506172839,0,0,0.06172839506172839,12.345679012345679,0)" xlink:href="#by"/><use transform="matrix(0.06172839506172839,0,0,0.06172839506172839,19.691358024691358,0)" xlink:href="#bw"/><use transform="matrix(0.06172839506172839,0,0,0.06172839506172839,32.03703703703704,0)" xlink:href="#bD"/><use transform="matrix(0.06172839506172839,0,0,0.06172839506172839,44.382716049382715,0)" xlink:href="#bu"/><use transform="matrix(0.06172839506172839,0,0,0.06172839506172839,56.72839506172839,0)" xlink:href="#bt"/><use transform="matrix(0.06172839506172839,0,0,0.06172839506172839,67.8395061728395,0)" xlink:href="#br"/><use transform="matrix(0.06172839506172839,0,0,0.06172839506172839,74.01234567901234,0)" xlink:href="#bv"/></g><g id="K"><use transform="matrix(0.06172839506172839,0,0,0.06172839506172839,0,0)" xlink:href="#br"/><use transform="matrix(0.06172839506172839,0,0,0.06172839506172839,6.172839506172839,0)" xlink:href="#bs"/><use transform="matrix(0.06172839506172839,0,0,0.06172839506172839,18.51851851851852,0)" xlink:href="#bp"/></g><path d="M115-194c53 0 69 39 70 98 0 66-23 100-70 100C84 3 66-7 56-30L54 0H23l1-261h32v101c10-23 28-34 59-34zm-8 174c40 0 45-34 45-75 0-40-5-75-45-74-42 0-51 32-51 76 0 43 10 73 51 73" id="bY"/><g id="L"><use transform="matrix(0.06172839506172839,0,0,0.06172839506172839,0,0)" xlink:href="#bJ"/><use transform="matrix(0.06172839506172839,0,0,0.06172839506172839,11.11111111111111,0)" xlink:href="#bo"/><use transform="matrix(0.06172839506172839,0,0,0.06172839506172839,15.987654320987653,0)" xlink:href="#bv"/><use transform="matrix(0.06172839506172839,0,0,0.06172839506172839,27.098765432098766,0)" xlink:href="#bo"/><use transform="matrix(0.06172839506172839,0,0,0.06172839506172839,31.975308641975307,0)" xlink:href="#bY"/><use transform="matrix(0.06172839506172839,0,0,0.06172839506172839,44.32098765432099,0)" xlink:href="#bI"/><use transform="matrix(0.06172839506172839,0,0,0.06172839506172839,49.19753086419753,0)" xlink:href="#bp"/></g><g id="M"><use transform="matrix(0.06172839506172839,0,0,0.06172839506172839,0,0)" xlink:href="#bG"/><use transform="matrix(0.06172839506172839,0,0,0.06172839506172839,12.345679012345679,0)" xlink:href="#by"/><use transform="matrix(0.06172839506172839,0,0,0.06172839506172839,19.691358024691358,0)" xlink:href="#bw"/><use transform="matrix(0.06172839506172839,0,0,0.06172839506172839,32.03703703703704,0)" xlink:href="#bD"/><use transform="matrix(0.06172839506172839,0,0,0.06172839506172839,44.382716049382715,0)" xlink:href="#bu"/><use transform="matrix(0.06172839506172839,0,0,0.06172839506172839,56.72839506172839,0)" xlink:href="#bt"/><use transform="matrix(0.06172839506172839,0,0,0.06172839506172839,67.8395061728395,0)" xlink:href="#br"/></g><g id="N"><use transform="matrix(0.06172839506172839,0,0,0.06172839506172839,0,0)" xlink:href="#bI"/><use transform="matrix(0.06172839506172839,0,0,0.06172839506172839,4.876543209876543,0)" xlink:href="#bo"/><use transform="matrix(0.06172839506172839,0,0,0.06172839506172839,9.753086419753085,0)" xlink:href="#bv"/><use transform="matrix(0.06172839506172839,0,0,0.06172839506172839,20.864197530864196,0)" xlink:href="#br"/></g><g id="O"><use transform="matrix(0.06172839506172839,0,0,0.06172839506172839,0,0)" xlink:href="#bE"/><use transform="matrix(0.06172839506172839,0,0,0.06172839506172839,15.987654320987653,0)" xlink:href="#bB"/><use transform="matrix(0.06172839506172839,0,0,0.06172839506172839,28.333333333333332,0)" xlink:href="#bC"/><use transform="matrix(0.06172839506172839,0,0,0.06172839506172839,40.67901234567901,0)" xlink:href="#bt"/><use transform="matrix(0.06172839506172839,0,0,0.06172839506172839,51.79012345679013,0)" xlink:href="#bp"/><use transform="matrix(0.06172839506172839,0,0,0.06172839506172839,64.13580246913581,0)" xlink:href="#bI"/></g><path d="M185-189c-5-48-123-54-124 2 14 75 158 14 163 119 3 78-121 87-175 55-17-10-28-26-33-46l33-7c5 56 141 63 141-1 0-78-155-14-162-118-5-82 145-84 179-34 5 7 8 16 11 25" id="bZ"/><g id="P"><use transform="matrix(0.06172839506172839,0,0,0.06172839506172839,0,0)" xlink:href="#bZ"/><use transform="matrix(0.06172839506172839,0,0,0.06172839506172839,14.814814814814813,0)" xlink:href="#bp"/><use transform="matrix(0.06172839506172839,0,0,0.06172839506172839,27.160493827160494,0)" xlink:href="#br"/></g><g id="Q"><use transform="matrix(0.06172839506172839,0,0,0.06172839506172839,0,0)" xlink:href="#bv"/><use transform="matrix(0.06172839506172839,0,0,0.06172839506172839,11.11111111111111,0)" xlink:href="#bp"/><use transform="matrix(0.06172839506172839,0,0,0.06172839506172839,23.45679012345679,0)" xlink:href="#by"/><use transform="matrix(0.06172839506172839,0,0,0.06172839506172839,30.80246913580247,0)" xlink:href="#bJ"/><use transform="matrix(0.06172839506172839,0,0,0.06172839506172839,41.91358024691358,0)" xlink:href="#bo"/><use transform="matrix(0.06172839506172839,0,0,0.06172839506172839,46.79012345679013,0)" xlink:href="#bt"/><use transform="matrix(0.06172839506172839,0,0,0.06172839506172839,57.90123456790124,0)" xlink:href="#bp"/></g><g id="R"><use transform="matrix(0.06172839506172839,0,0,0.06172839506172839,0,0)" xlink:href="#bv"/><use transform="matrix(0.06172839506172839,0,0,0.06172839506172839,11.11111111111111,0)" xlink:href="#br"/><use transform="matrix(0.06172839506172839,0,0,0.06172839506172839,17.28395061728395,0)" xlink:href="#bB"/><use transform="matrix(0.06172839506172839,0,0,0.06172839506172839,29.629629629629626,0)" xlink:href="#br"/><use transform="matrix(0.06172839506172839,0,0,0.06172839506172839,35.80246913580247,0)" xlink:href="#bu"/><use transform="matrix(0.06172839506172839,0,0,0.06172839506172839,48.148148148148145,0)" xlink:href="#bv"/><use transform="matrix(0.06172839506172839,0,0,0.06172839506172839,59.25925925925925,0)" xlink:href="#bK"/></g><g id="S"><use transform="matrix(0.06172839506172839,0,0,0.06172839506172839,0,0)" xlink:href="#bw"/><use transform="matrix(0.06172839506172839,0,0,0.06172839506172839,12.345679012345679,0)" xlink:href="#bG"/><use transform="matrix(0.06172839506172839,0,0,0.06172839506172839,24.691358024691358,0)" xlink:href="#bp"/><use transform="matrix(0.06172839506172839,0,0,0.06172839506172839,37.03703703703704,0)" xlink:href="#bC"/><use transform="matrix(0.06172839506172839,0,0,0.06172839506172839,49.382716049382715,0)" xlink:href="#bO"/></g><g id="T"><use transform="matrix(0.06172839506172839,0,0,0.06172839506172839,0,0)" xlink:href="#bt"/><use transform="matrix(0.06172839506172839,0,0,0.06172839506172839,11.11111111111111,0)" xlink:href="#bI"/><use transform="matrix(0.06172839506172839,0,0,0.06172839506172839,15.987654320987653,0)" xlink:href="#bw"/><use transform="matrix(0.06172839506172839,0,0,0.06172839506172839,28.333333333333332,0)" xlink:href="#bv"/><use transform="matrix(0.06172839506172839,0,0,0.06172839506172839,39.44444444444444,0)" xlink:href="#bp"/><use transform="matrix(0.06172839506172839,0,0,0.06172839506172839,51.79012345679012,0)" xlink:href="#bO"/></g><g id="U"><use transform="matrix(0.06172839506172839,0,0,0.06172839506172839,0,0)" xlink:href="#bY"/><use transform="matrix(0.06172839506172839,0,0,0.06172839506172839,12.345679012345679,0)" xlink:href="#bu"/><use transform="matrix(0.06172839506172839,0,0,0.06172839506172839,24.691358024691358,0)" xlink:href="#bv"/><use transform="matrix(0.06172839506172839,0,0,0.06172839506172839,35.80246913580247,0)" xlink:href="#bP"/></g><path d="M33 0v-38h34V0H33" id="ca"/><g id="V"><use transform="matrix(0.06172839506172839,0,0,0.06172839506172839,0,0)" xlink:href="#bp"/><use transform="matrix(0.06172839506172839,0,0,0.06172839506172839,12.345679012345679,0)" xlink:href="#br"/><use transform="matrix(0.06172839506172839,0,0,0.06172839506172839,18.51851851851852,0)" xlink:href="#bt"/><use transform="matrix(0.06172839506172839,0,0,0.06172839506172839,29.62962962962963,0)" xlink:href="#ca"/></g><path d="M194 0L95-120 63-95V0H30v-248h33v124l119-124h40L117-140 236 0h-42" id="cb"/><g id="W"><use transform="matrix(0.06172839506172839,0,0,0.06172839506172839,0,0)" xlink:href="#cb"/><use transform="matrix(0.06172839506172839,0,0,0.06172839506172839,14.814814814814813,0)" xlink:href="#bp"/><use transform="matrix(0.06172839506172839,0,0,0.06172839506172839,27.160493827160494,0)" xlink:href="#bp"/><use transform="matrix(0.06172839506172839,0,0,0.06172839506172839,39.50617283950617,0)" xlink:href="#bG"/></g><path d="M143 0L79-87 56-68V0H24v-261h32v163l83-92h37l-77 82L181 0h-38" id="cc"/><g id="X"><use transform="matrix(0.06172839506172839,0,0,0.06172839506172839,0,0)" xlink:href="#br"/><use transform="matrix(0.06172839506172839,0,0,0.06172839506172839,6.172839506172839,0)" xlink:href="#by"/><use transform="matrix(0.06172839506172839,0,0,0.06172839506172839,13.518518518518519,0)" xlink:href="#bB"/><use transform="matrix(0.06172839506172839,0,0,0.06172839506172839,25.864197530864196,0)" xlink:href="#bt"/><use transform="matrix(0.06172839506172839,0,0,0.06172839506172839,36.9753086419753,0)" xlink:href="#cc"/></g><g id="Y"><use transform="matrix(0.06172839506172839,0,0,0.06172839506172839,0,0)" xlink:href="#bw"/><use transform="matrix(0.06172839506172839,0,0,0.06172839506172839,12.345679012345679,0)" xlink:href="#bF"/></g><g id="Z"><use transform="matrix(0.06172839506172839,0,0,0.06172839506172839,0,0)" xlink:href="#bp"/><use transform="matrix(0.06172839506172839,0,0,0.06172839506172839,12.345679012345679,0)" xlink:href="#bJ"/><use transform="matrix(0.06172839506172839,0,0,0.06172839506172839,23.45679012345679,0)" xlink:href="#bp"/><use transform="matrix(0.06172839506172839,0,0,0.06172839506172839,35.80246913580247,0)" xlink:href="#by"/><use transform="matrix(0.06172839506172839,0,0,0.06172839506172839,43.148148148148145,0)" xlink:href="#bP"/></g><g id="aa"><use transform="matrix(0.06172839506172839,0,0,0.06172839506172839,0,0)" xlink:href="#bD"/><use transform="matrix(0.06172839506172839,0,0,0.06172839506172839,12.345679012345679,0)" xlink:href="#bp"/><use transform="matrix(0.06172839506172839,0,0,0.06172839506172839,24.691358024691358,0)" xlink:href="#bB"/><use transform="matrix(0.06172839506172839,0,0,0.06172839506172839,37.03703703703704,0)" xlink:href="#bI"/></g><path d="M30-248c87 1 191-15 191 75 0 78-77 80-158 76V0H30v-248zm33 125c57 0 124 11 124-50 0-59-68-47-124-48v98" id="cd"/><g id="ab"><use transform="matrix(0.06172839506172839,0,0,0.06172839506172839,0,0)" xlink:href="#cd"/><use transform="matrix(0.06172839506172839,0,0,0.06172839506172839,14.814814814814813,0)" xlink:href="#by"/><use transform="matrix(0.06172839506172839,0,0,0.06172839506172839,22.160493827160494,0)" xlink:href="#bw"/><use transform="matrix(0.06172839506172839,0,0,0.06172839506172839,34.50617283950617,0)" xlink:href="#bx"/><use transform="matrix(0.06172839506172839,0,0,0.06172839506172839,52.96296296296296,0)" xlink:href="#bG"/><use transform="matrix(0.06172839506172839,0,0,0.06172839506172839,65.30864197530865,0)" xlink:href="#br"/></g><g id="ac"><use transform="matrix(0.06172839506172839,0,0,0.06172839506172839,0,0)" xlink:href="#bv"/><use transform="matrix(0.06172839506172839,0,0,0.06172839506172839,11.11111111111111,0)" xlink:href="#bs"/><use transform="matrix(0.06172839506172839,0,0,0.06172839506172839,23.45679012345679,0)" xlink:href="#bw"/><use transform="matrix(0.06172839506172839,0,0,0.06172839506172839,35.80246913580247,0)" xlink:href="#bG"/><use transform="matrix(0.06172839506172839,0,0,0.06172839506172839,48.148148148148145,0)" xlink:href="#bK"/><use transform="matrix(0.06172839506172839,0,0,0.06172839506172839,55.49382716049382,0)" xlink:href="#bw"/><use transform="matrix(0.06172839506172839,0,0,0.06172839506172839,67.8395061728395,0)" xlink:href="#bq"/><use transform="matrix(0.06172839506172839,0,0,0.06172839506172839,83.82716049382717,0)" xlink:href="#bC"/><use transform="matrix(0.06172839506172839,0,0,0.06172839506172839,96.17283950617285,0)" xlink:href="#bp"/><use transform="matrix(0.06172839506172839,0,0,0.06172839506172839,108.51851851851853,0)" xlink:href="#by"/><use transform="matrix(0.06172839506172839,0,0,0.06172839506172839,115.86419753086422,0)" xlink:href="#bv"/></g><g id="ad"><use transform="matrix(0.06172839506172839,0,0,0.06172839506172839,0,0)" xlink:href="#bu"/><use transform="matrix(0.06172839506172839,0,0,0.06172839506172839,12.345679012345679,0)" xlink:href="#bG"/><use transform="matrix(0.06172839506172839,0,0,0.06172839506172839,24.691358024691358,0)" xlink:href="#bD"/><use transform="matrix(0.06172839506172839,0,0,0.06172839506172839,37.03703703703704,0)" xlink:href="#bB"/><use transform="matrix(0.06172839506172839,0,0,0.06172839506172839,49.382716049382715,0)" xlink:href="#br"/><use transform="matrix(0.06172839506172839,0,0,0.06172839506172839,55.55555555555556,0)" xlink:href="#bp"/></g><g id="ae"><use transform="matrix(0.06172839506172839,0,0,0.06172839506172839,0,0)" xlink:href="#bo"/><use transform="matrix(0.06172839506172839,0,0,0.06172839506172839,4.876543209876543,0)" xlink:href="#br"/><use transform="matrix(0.06172839506172839,0,0,0.06172839506172839,11.049382716049383,0)" xlink:href="#bp"/><use transform="matrix(0.06172839506172839,0,0,0.06172839506172839,23.395061728395063,0)" xlink:href="#bx"/><use transform="matrix(0.06172839506172839,0,0,0.06172839506172839,41.85185185185185,0)" xlink:href="#bv"/></g><g id="af"><use transform="matrix(0.06172839506172839,0,0,0.06172839506172839,0,0)" xlink:href="#bZ"/><use transform="matrix(0.06172839506172839,0,0,0.06172839506172839,14.814814814814813,0)" xlink:href="#bu"/><use transform="matrix(0.06172839506172839,0,0,0.06172839506172839,27.160493827160494,0)" xlink:href="#bH"/><use transform="matrix(0.06172839506172839,0,0,0.06172839506172839,39.50617283950617,0)" xlink:href="#bH"/><use transform="matrix(0.06172839506172839,0,0,0.06172839506172839,51.85185185185185,0)" xlink:href="#bp"/><use transform="matrix(0.06172839506172839,0,0,0.06172839506172839,64.19753086419753,0)" xlink:href="#bv"/><use transform="matrix(0.06172839506172839,0,0,0.06172839506172839,75.30864197530865,0)" xlink:href="#br"/></g><g id="ag"><use transform="matrix(0.06172839506172839,0,0,0.06172839506172839,0,0)" xlink:href="#bp"/><use transform="matrix(0.06172839506172839,0,0,0.06172839506172839,12.345679012345679,0)" xlink:href="#bF"/><use transform="matrix(0.06172839506172839,0,0,0.06172839506172839,18.08641975308642,0)" xlink:href="#bF"/><use transform="matrix(0.06172839506172839,0,0,0.06172839506172839,24.25925925925926,0)" xlink:href="#bo"/><use transform="matrix(0.06172839506172839,0,0,0.06172839506172839,29.135802469135804,0)" xlink:href="#bt"/><use transform="matrix(0.06172839506172839,0,0,0.06172839506172839,40.24691358024691,0)" xlink:href="#bo"/><use transform="matrix(0.06172839506172839,0,0,0.06172839506172839,45.123456790123456,0)" xlink:href="#bp"/><use transform="matrix(0.06172839506172839,0,0,0.06172839506172839,57.46913580246913,0)" xlink:href="#bC"/><use transform="matrix(0.06172839506172839,0,0,0.06172839506172839,69.81481481481481,0)" xlink:href="#br"/></g><g id="ah"><use transform="matrix(0.06172839506172839,0,0,0.06172839506172839,0,0)" xlink:href="#bD"/><use transform="matrix(0.06172839506172839,0,0,0.06172839506172839,12.345679012345679,0)" xlink:href="#bp"/><use transform="matrix(0.06172839506172839,0,0,0.06172839506172839,24.691358024691358,0)" xlink:href="#bI"/><use transform="matrix(0.06172839506172839,0,0,0.06172839506172839,29.5679012345679,0)" xlink:href="#bo"/><use transform="matrix(0.06172839506172839,0,0,0.06172839506172839,34.44444444444444,0)" xlink:href="#bJ"/><use transform="matrix(0.06172839506172839,0,0,0.06172839506172839,45.55555555555556,0)" xlink:href="#bp"/><use transform="matrix(0.06172839506172839,0,0,0.06172839506172839,57.901234567901234,0)" xlink:href="#by"/><use transform="matrix(0.06172839506172839,0,0,0.06172839506172839,65.24691358024691,0)" xlink:href="#bP"/></g><g id="ai"><use transform="matrix(0.06172839506172839,0,0,0.06172839506172839,0,0)" xlink:href="#bv"/><use transform="matrix(0.06172839506172839,0,0,0.06172839506172839,11.11111111111111,0)" xlink:href="#bp"/><use transform="matrix(0.06172839506172839,0,0,0.06172839506172839,23.45679012345679,0)" xlink:href="#bA"/><use transform="matrix(0.06172839506172839,0,0,0.06172839506172839,35.80246913580247,0)" xlink:href="#bu"/><use transform="matrix(0.06172839506172839,0,0,0.06172839506172839,48.148148148148145,0)" xlink:href="#bp"/><use transform="matrix(0.06172839506172839,0,0,0.06172839506172839,60.49382716049382,0)" xlink:href="#bC"/><use transform="matrix(0.06172839506172839,0,0,0.06172839506172839,72.8395061728395,0)" xlink:href="#bt"/><use transform="matrix(0.06172839506172839,0,0,0.06172839506172839,83.95061728395062,0)" xlink:href="#bp"/></g><path fill="#333" d="M100 10C77 47 50 87-15 72l7-35c37 9 51-18 65-41L20-190h51L89-44l73-146h53" id="ce"/><g id="aj"><use transform="matrix(0.06790123456790123,0,0,0.06790123456790123,0,0)" xlink:href="#bR"/><use transform="matrix(0.06790123456790123,0,0,0.06790123456790123,16.296296296296294,0)" xlink:href="#ce"/><use transform="matrix(0.06790123456790123,0,0,0.06790123456790123,29.87654320987654,0)" xlink:href="#aU"/><use transform="matrix(0.06790123456790123,0,0,0.06790123456790123,43.456790123456784,0)" xlink:href="#aV"/><use transform="matrix(0.06790123456790123,0,0,0.06790123456790123,51.53703703703703,0)" xlink:href="#aY"/><use transform="matrix(0.06790123456790123,0,0,0.06790123456790123,65.11728395061728,0)" xlink:href="#aX"/></g><g id="ak"><use transform="matrix(0.06172839506172839,0,0,0.06172839506172839,0,0)" xlink:href="#bZ"/><use transform="matrix(0.06172839506172839,0,0,0.06172839506172839,14.814814814814813,0)" xlink:href="#bp"/><use transform="matrix(0.06172839506172839,0,0,0.06172839506172839,27.160493827160494,0)" xlink:href="#bB"/><use transform="matrix(0.06172839506172839,0,0,0.06172839506172839,39.50617283950617,0)" xlink:href="#by"/><use transform="matrix(0.06172839506172839,0,0,0.06172839506172839,46.85185185185185,0)" xlink:href="#bt"/><use transform="matrix(0.06172839506172839,0,0,0.06172839506172839,57.96296296296296,0)" xlink:href="#bs"/></g><g id="al"><use transform="matrix(0.06172839506172839,0,0,0.06172839506172839,0,0)" xlink:href="#bv"/><use transform="matrix(0.06172839506172839,0,0,0.06172839506172839,11.11111111111111,0)" xlink:href="#br"/><use transform="matrix(0.06172839506172839,0,0,0.06172839506172839,17.28395061728395,0)" xlink:href="#bw"/><use transform="matrix(0.06172839506172839,0,0,0.06172839506172839,29.629629629629626,0)" xlink:href="#by"/><use transform="matrix(0.06172839506172839,0,0,0.06172839506172839,36.9753086419753,0)" xlink:href="#bp"/><use transform="matrix(0.06172839506172839,0,0,0.06172839506172839,49.32098765432098,0)" xlink:href="#bv"/></g><g id="am"><use transform="matrix(0.06172839506172839,0,0,0.06172839506172839,0,0)" xlink:href="#bY"/><use transform="matrix(0.06172839506172839,0,0,0.06172839506172839,12.345679012345679,0)" xlink:href="#bP"/></g><g id="an"><use transform="matrix(0.06172839506172839,0,0,0.06172839506172839,0,0)" xlink:href="#bo"/><use transform="matrix(0.06172839506172839,0,0,0.06172839506172839,4.876543209876543,0)" xlink:href="#br"/><use transform="matrix(0.06172839506172839,0,0,0.06172839506172839,11.049382716049383,0)" xlink:href="#bp"/><use transform="matrix(0.06172839506172839,0,0,0.06172839506172839,23.395061728395063,0)" xlink:href="#bx"/></g><g id="ao"><use transform="matrix(0.06172839506172839,0,0,0.06172839506172839,0,0)" xlink:href="#bC"/><use transform="matrix(0.06172839506172839,0,0,0.06172839506172839,12.345679012345679,0)" xlink:href="#bB"/><use transform="matrix(0.06172839506172839,0,0,0.06172839506172839,24.691358024691358,0)" xlink:href="#bx"/><use transform="matrix(0.06172839506172839,0,0,0.06172839506172839,43.148148148148145,0)" xlink:href="#bp"/><use transform="matrix(0.06172839506172839,0,0,0.06172839506172839,55.49382716049382,0)" xlink:href="#bM"/><use transform="matrix(0.06172839506172839,0,0,0.06172839506172839,61.666666666666664,0)" xlink:href="#bt"/><use transform="matrix(0.06172839506172839,0,0,0.06172839506172839,72.77777777777777,0)" xlink:href="#bB"/><use transform="matrix(0.06172839506172839,0,0,0.06172839506172839,85.12345679012346,0)" xlink:href="#br"/><use transform="matrix(0.06172839506172839,0,0,0.06172839506172839,91.29629629629629,0)" xlink:href="#bB"/><use transform="matrix(0.06172839506172839,0,0,0.06172839506172839,103.64197530864197,0)" xlink:href="#bH"/><use transform="matrix(0.06172839506172839,0,0,0.06172839506172839,115.98765432098766,0)" xlink:href="#bw"/><use transform="matrix(0.06172839506172839,0,0,0.06172839506172839,128.33333333333334,0)" xlink:href="#by"/><use transform="matrix(0.06172839506172839,0,0,0.06172839506172839,135.679012345679,0)" xlink:href="#bP"/></g><g id="ap"><use transform="matrix(0.06172839506172839,0,0,0.06172839506172839,0,0)" xlink:href="#bn"/><use transform="matrix(0.06172839506172839,0,0,0.06172839506172839,14.382716049382715,0)" xlink:href="#bo"/><use transform="matrix(0.06172839506172839,0,0,0.06172839506172839,19.25925925925926,0)" xlink:href="#bp"/><use transform="matrix(0.06172839506172839,0,0,0.06172839506172839,31.604938271604937,0)" xlink:href="#bq"/></g><g id="aq"><use transform="matrix(0.06172839506172839,0,0,0.06172839506172839,0,0)" xlink:href="#bB"/><use transform="matrix(0.06172839506172839,0,0,0.06172839506172839,12.345679012345679,0)" xlink:href="#bJ"/><use transform="matrix(0.06172839506172839,0,0,0.06172839506172839,23.45679012345679,0)" xlink:href="#bB"/><use transform="matrix(0.06172839506172839,0,0,0.06172839506172839,35.80246913580247,0)" xlink:href="#bo"/><use transform="matrix(0.06172839506172839,0,0,0.06172839506172839,40.67901234567901,0)" xlink:href="#bI"/><use transform="matrix(0.06172839506172839,0,0,0.06172839506172839,45.55555555555556,0)" xlink:href="#bB"/><use transform="matrix(0.06172839506172839,0,0,0.06172839506172839,57.901234567901234,0)" xlink:href="#bY"/><use transform="matrix(0.06172839506172839,0,0,0.06172839506172839,70.24691358024691,0)" xlink:href="#bI"/><use transform="matrix(0.06172839506172839,0,0,0.06172839506172839,75.12345679012346,0)" xlink:href="#bp"/></g><g id="ar"><use transform="matrix(0.06172839506172839,0,0,0.06172839506172839,0,0)" xlink:href="#bw"/><use transform="matrix(0.06172839506172839,0,0,0.06172839506172839,12.345679012345679,0)" xlink:href="#bC"/></g><g id="as"><use transform="matrix(0.06172839506172839,0,0,0.06172839506172839,0,0)" xlink:href="#bv"/><use transform="matrix(0.06172839506172839,0,0,0.06172839506172839,11.11111111111111,0)" xlink:href="#bs"/><use transform="matrix(0.06172839506172839,0,0,0.06172839506172839,23.45679012345679,0)" xlink:href="#bw"/><use transform="matrix(0.06172839506172839,0,0,0.06172839506172839,35.80246913580247,0)" xlink:href="#bG"/></g><g id="at"><use transform="matrix(0.06172839506172839,0,0,0.06172839506172839,0,0)" xlink:href="#bE"/><use transform="matrix(0.06172839506172839,0,0,0.06172839506172839,15.987654320987653,0)" xlink:href="#bs"/><use transform="matrix(0.06172839506172839,0,0,0.06172839506172839,28.333333333333332,0)" xlink:href="#bB"/><use transform="matrix(0.06172839506172839,0,0,0.06172839506172839,40.67901234567901,0)" xlink:href="#br"/></g><g id="au"><use transform="matrix(0.06172839506172839,0,0,0.06172839506172839,0,0)" xlink:href="#bq"/><use transform="matrix(0.06172839506172839,0,0,0.06172839506172839,15.987654320987653,0)" xlink:href="#bo"/><use transform="matrix(0.06172839506172839,0,0,0.06172839506172839,20.864197530864196,0)" xlink:href="#br"/><use transform="matrix(0.06172839506172839,0,0,0.06172839506172839,27.037037037037035,0)" xlink:href="#bs"/></g><g id="av"><use transform="matrix(0.06172839506172839,0,0,0.06172839506172839,0,0)" xlink:href="#bG"/><use transform="matrix(0.06172839506172839,0,0,0.06172839506172839,12.345679012345679,0)" xlink:href="#bp"/><use transform="matrix(0.06172839506172839,0,0,0.06172839506172839,24.691358024691358,0)" xlink:href="#bw"/><use transform="matrix(0.06172839506172839,0,0,0.06172839506172839,37.03703703703704,0)" xlink:href="#bG"/><use transform="matrix(0.06172839506172839,0,0,0.06172839506172839,49.382716049382715,0)" xlink:href="#bI"/><use transform="matrix(0.06172839506172839,0,0,0.06172839506172839,54.25925925925926,0)" xlink:href="#bp"/></g><g id="aw"><use transform="matrix(0.06172839506172839,0,0,0.06172839506172839,0,0)" xlink:href="#bw"/><use transform="matrix(0.06172839506172839,0,0,0.06172839506172839,12.345679012345679,0)" xlink:href="#bC"/></g><g id="ax"><use transform="matrix(0.06172839506172839,0,0,0.06172839506172839,0,0)" xlink:href="#bt"/><use transform="matrix(0.06172839506172839,0,0,0.06172839506172839,11.11111111111111,0)" xlink:href="#bu"/><use transform="matrix(0.06172839506172839,0,0,0.06172839506172839,23.45679012345679,0)" xlink:href="#bv"/><use transform="matrix(0.06172839506172839,0,0,0.06172839506172839,34.5679012345679,0)" xlink:href="#br"/><use transform="matrix(0.06172839506172839,0,0,0.06172839506172839,40.74074074074074,0)" xlink:href="#bw"/><use transform="matrix(0.06172839506172839,0,0,0.06172839506172839,53.08641975308642,0)" xlink:href="#bx"/><use transform="matrix(0.06172839506172839,0,0,0.06172839506172839,71.5432098765432,0)" xlink:href="#bp"/><use transform="matrix(0.06172839506172839,0,0,0.06172839506172839,83.88888888888889,0)" xlink:href="#by"/></g><path d="M219-77C219 17 104-2 11 0l48-248c73 2 169-15 169 57 0 38-24 54-60 60 29 5 51 21 51 54zm-26-111c0-44-62-31-105-33l-16 79c55 0 121 9 121-46zm-7 110c-1-49-69-36-119-38L50-27c61-1 137 12 136-51" id="cf"/><path d="M188 0h-37l-8-164L71 0H34L18-190h31l8 164 75-164h34l8 164 74-164h31" id="cg"/><path d="M55-144c13 50 104 24 104 88C159 21 15 23 1-39l26-10c6 40 102 42 102-4-13-50-104-23-104-87 0-71 143-71 148-8l-29 4c-5-35-85-37-89 0" id="ch"/><g id="ay"><use transform="matrix(0.06172839506172839,0,0,0.06172839506172839,0,0)" xlink:href="#cf"/><use transform="matrix(0.06172839506172839,0,0,0.06172839506172839,14.814814814814813,0)" xlink:href="#bb"/><use transform="matrix(0.06172839506172839,0,0,0.06172839506172839,22.160493827160494,0)" xlink:href="#bh"/><use transform="matrix(0.06172839506172839,0,0,0.06172839506172839,34.50617283950617,0)" xlink:href="#cg"/><use transform="matrix(0.06172839506172839,0,0,0.06172839506172839,50.49382716049382,0)" xlink:href="#ch"/><use transform="matrix(0.06172839506172839,0,0,0.06172839506172839,61.60493827160494,0)" xlink:href="#bc"/></g><path d="M68-162c25-46 127-43 121 31C183-60 169 1 98 4 69 5 53-11 43-31L36 0H5l52-261h31zm88 36c2-27-9-43-34-43-55 0-70 51-70 103 0 29 15 45 43 46 52 0 58-58 61-106" id="ci"/><path d="M198-190L69 30C53 58 25 83-20 72c4-11-1-27 19-22 33-1 43-29 59-52L20-190h32L79-34l84-156h35" id="cj"/><g id="az"><use transform="matrix(0.06172839506172839,0,0,0.06172839506172839,0,0)" xlink:href="#bf"/><use transform="matrix(0.06172839506172839,0,0,0.06172839506172839,12.345679012345679,0)" xlink:href="#bc"/><use transform="matrix(0.06172839506172839,0,0,0.06172839506172839,24.691358024691358,0)" xlink:href="#bd"/><use transform="matrix(0.06172839506172839,0,0,0.06172839506172839,37.03703703703704,0)" xlink:href="#bb"/><use transform="matrix(0.06172839506172839,0,0,0.06172839506172839,44.382716049382715,0)" xlink:href="#ci"/><use transform="matrix(0.06172839506172839,0,0,0.06172839506172839,56.72839506172839,0)" xlink:href="#cj"/></g><g id="aA"><use transform="matrix(0.06172839506172839,0,0,0.06172839506172839,0,0)" xlink:href="#ch"/><use transform="matrix(0.06172839506172839,0,0,0.06172839506172839,11.11111111111111,0)" xlink:href="#be"/><use transform="matrix(0.06172839506172839,0,0,0.06172839506172839,17.28395061728395,0)" xlink:href="#bh"/><use transform="matrix(0.06172839506172839,0,0,0.06172839506172839,29.629629629629626,0)" xlink:href="#bb"/><use transform="matrix(0.06172839506172839,0,0,0.06172839506172839,36.9753086419753,0)" xlink:href="#bc"/><use transform="matrix(0.06172839506172839,0,0,0.06172839506172839,49.32098765432098,0)" xlink:href="#ch"/></g><path d="M76-167L44 0H12l33-167H18l4-23h27c3-47 25-81 82-69l-4 24c-35-8-44 15-46 45h37l-5 23H76" id="ck"/><path d="M248-111c6-24 9-61-24-58-72 9-57 108-77 169h-31l26-142c3-37-50-30-64-10C52-115 50-51 37 0H6l36-190h30c-1 10-6 24-4 32 13-43 101-52 105 5 13-22 29-41 61-41 90 0 28 129 23 194h-31" id="cl"/><g id="aB"><use transform="matrix(0.06172839506172839,0,0,0.06172839506172839,0,0)" xlink:href="#ck"/><use transform="matrix(0.06172839506172839,0,0,0.06172839506172839,6.172839506172839,0)" xlink:href="#bb"/><use transform="matrix(0.06172839506172839,0,0,0.06172839506172839,13.518518518518519,0)" xlink:href="#bh"/><use transform="matrix(0.06172839506172839,0,0,0.06172839506172839,25.864197530864196,0)" xlink:href="#cl"/></g><path d="M67-162c32-53 139-36 121 50C175-51 163 2 97 4 68 4 52-11 42-31 38 6 28 39 22 75H-9l50-265h29c-1 10 0 20-3 28zm89 36c0-26-10-43-35-43-54 0-67 50-69 103-1 29 14 45 42 46 53 0 62-58 62-106" id="cm"/><g id="aC"><use transform="matrix(0.06172839506172839,0,0,0.06172839506172839,0,0)" xlink:href="#cl"/><use transform="matrix(0.06172839506172839,0,0,0.06172839506172839,18.456790123456788,0)" xlink:href="#bd"/><use transform="matrix(0.06172839506172839,0,0,0.06172839506172839,30.80246913580247,0)" xlink:href="#cm"/></g><path d="M190 0L58-211 59 0H30v-248h39L202-35l-2-213h31V0h-41" id="cn"/><g id="aD"><use transform="matrix(0.06172839506172839,0,0,0.06172839506172839,0,0)" xlink:href="#cn"/><use transform="matrix(0.06172839506172839,0,0,0.06172839506172839,15.987654320987653,0)" xlink:href="#bw"/><use transform="matrix(0.06172839506172839,0,0,0.06172839506172839,28.333333333333332,0)" xlink:href="#br"/><use transform="matrix(0.06172839506172839,0,0,0.06172839506172839,34.50617283950617,0)" xlink:href="#bo"/><use transform="matrix(0.06172839506172839,0,0,0.06172839506172839,39.382716049382715,0)" xlink:href="#bF"/><use transform="matrix(0.06172839506172839,0,0,0.06172839506172839,45.55555555555556,0)" xlink:href="#bP"/></g><g id="aE"><use transform="matrix(0.06172839506172839,0,0,0.06172839506172839,0,0)" xlink:href="#bE"/><use transform="matrix(0.06172839506172839,0,0,0.06172839506172839,15.987654320987653,0)" xlink:href="#bu"/><use transform="matrix(0.06172839506172839,0,0,0.06172839506172839,28.333333333333332,0)" xlink:href="#bv"/><use transform="matrix(0.06172839506172839,0,0,0.06172839506172839,39.44444444444444,0)" xlink:href="#br"/><use transform="matrix(0.06172839506172839,0,0,0.06172839506172839,45.617283950617285,0)" xlink:href="#bw"/><use transform="matrix(0.06172839506172839,0,0,0.06172839506172839,57.96296296296296,0)" xlink:href="#bx"/><use transform="matrix(0.06172839506172839,0,0,0.06172839506172839,76.41975308641975,0)" xlink:href="#bp"/><use transform="matrix(0.06172839506172839,0,0,0.06172839506172839,88.76543209876543,0)" xlink:href="#by"/><use transform="matrix(0.06172839506172839,0,0,0.06172839506172839,96.11111111111111,0)" xlink:href="#bv"/></g><g id="aF"><use transform="matrix(0.06172839506172839,0,0,0.06172839506172839,0,0)" xlink:href="#bw"/><use transform="matrix(0.06172839506172839,0,0,0.06172839506172839,12.345679012345679,0)" xlink:href="#bF"/></g><g id="aG"><use transform="matrix(0.06172839506172839,0,0,0.06172839506172839,0,0)" xlink:href="#bt"/><use transform="matrix(0.06172839506172839,0,0,0.06172839506172839,11.11111111111111,0)" xlink:href="#bB"/><use transform="matrix(0.06172839506172839,0,0,0.06172839506172839,23.45679012345679,0)" xlink:href="#bC"/><use transform="matrix(0.06172839506172839,0,0,0.06172839506172839,35.80246913580247,0)" xlink:href="#bt"/><use transform="matrix(0.06172839506172839,0,0,0.06172839506172839,46.91358024691358,0)" xlink:href="#bp"/><use transform="matrix(0.06172839506172839,0,0,0.06172839506172839,59.25925925925926,0)" xlink:href="#bI"/><use transform="matrix(0.06172839506172839,0,0,0.06172839506172839,64.1358024691358,0)" xlink:href="#bI"/><use transform="matrix(0.06172839506172839,0,0,0.06172839506172839,69.01234567901234,0)" xlink:href="#bp"/><use transform="matrix(0.06172839506172839,0,0,0.06172839506172839,81.35802469135803,0)" xlink:href="#bD"/></g><g id="aH"><use transform="matrix(0.06172839506172839,0,0,0.06172839506172839,0,0)" xlink:href="#bZ"/><use transform="matrix(0.06172839506172839,0,0,0.06172839506172839,14.814814814814813,0)" xlink:href="#bs"/><use transform="matrix(0.06172839506172839,0,0,0.06172839506172839,27.160493827160494,0)" xlink:href="#bw"/><use transform="matrix(0.06172839506172839,0,0,0.06172839506172839,39.50617283950617,0)" xlink:href="#bG"/><use transform="matrix(0.06172839506172839,0,0,0.06172839506172839,51.85185185185185,0)" xlink:href="#bK"/><use transform="matrix(0.06172839506172839,0,0,0.06172839506172839,59.197530864197525,0)" xlink:href="#bw"/><use transform="matrix(0.06172839506172839,0,0,0.06172839506172839,71.5432098765432,0)" xlink:href="#bq"/><use transform="matrix(0.06172839506172839,0,0,0.06172839506172839,87.53086419753086,0)" xlink:href="#bC"/><use transform="matrix(0.06172839506172839,0,0,0.06172839506172839,99.87654320987654,0)" xlink:href="#bp"/><use transform="matrix(0.06172839506172839,0,0,0.06172839506172839,112.22222222222223,0)" xlink:href="#by"/><use transform="matrix(0.06172839506172839,0,0,0.06172839506172839,119.56790123456791,0)" xlink:href="#bv"/></g><path fill="#333" d="M109-170H84l-4-78h32zm-65 0H19l-4-78h33" id="co"/><path fill="#333" d="M63-220v92h138v28H63V0H30v-248h175v28H63" id="cp"/><path fill="#333" d="M24-231v-30h32v30H24zM24 0v-190h32V0H24" id="cq"/><path fill="#333" d="M117-194c89-4 53 116 60 194h-32v-121c0-31-8-49-39-48C34-167 62-67 57 0H25l-1-190h30c1 10-1 24 2 32 11-22 29-35 61-36" id="cr"/><path fill="#333" d="M85-194c31 0 48 13 60 33l-1-100h32l1 261h-30c-2-10 0-23-3-31C134-8 116 4 85 4 32 4 16-35 15-94c0-66 23-100 70-100zm9 24c-40 0-46 34-46 75 0 40 6 74 45 74 42 0 51-32 51-76 0-42-9-74-50-73" id="cs"/><g id="aI"><use transform="matrix(0.12345679012345677,0,0,0.12345679012345677,0,0)" xlink:href="#co"/><use transform="matrix(0.12345679012345677,0,0,0.12345679012345677,15.67901234567901,0)" xlink:href="#cp"/><use transform="matrix(0.12345679012345677,0,0,0.12345679012345677,42.71604938271604,0)" xlink:href="#cq"/><use transform="matrix(0.12345679012345677,0,0,0.12345679012345677,52.469135802469125,0)" xlink:href="#cr"/><use transform="matrix(0.12345679012345677,0,0,0.12345679012345677,77.16049382716048,0)" xlink:href="#cs"/></g><path fill="#333" d="M141-36C126-15 110 5 73 4 37 3 15-17 15-53c-1-64 63-63 125-63 3-35-9-54-41-54-24 1-41 7-42 31l-33-3c5-37 33-52 76-52 45 0 72 20 72 64v82c-1 20 7 32 28 27v20c-31 9-61-2-59-35zM48-53c0 20 12 33 32 33 41-3 63-29 60-74-43 2-92-5-92 41" id="ct"/><use transform="matrix(0.12345679012345677,0,0,0.12345679012345677,0,0)" xlink:href="#ct" id="aJ"/><path fill="#333" d="M185-189c-5-48-123-54-124 2 14 75 158 14 163 119 3 78-121 87-175 55-17-10-28-26-33-46l33-7c5 56 141 63 141-1 0-78-155-14-162-118-5-82 145-84 179-34 5 7 8 16 11 25" id="cu"/><path fill="#333" d="M59-47c-2 24 18 29 38 22v24C64 9 27 4 27-40v-127H5v-23h24l9-43h21v43h35v23H59v120" id="cv"/><path fill="#333" d="M100-194c62-1 85 37 85 99 1 63-27 99-86 99S16-35 15-95c0-66 28-99 85-99zM99-20c44 1 53-31 53-75 0-43-8-75-51-75s-53 32-53 75 10 74 51 75" id="cw"/><path fill="#333" d="M114-163C36-179 61-72 57 0H25l-1-190h30c1 12-1 29 2 39 6-27 23-49 58-41v29" id="cx"/><path fill="#333" d="M100-194c63 0 86 42 84 106H49c0 40 14 67 53 68 26 1 43-12 49-29l28 8c-11 28-37 45-77 45C44 4 14-33 15-96c1-61 26-98 85-98zm52 81c6-60-76-77-97-28-3 7-6 17-6 28h103" id="cy"/><g id="aK"><use transform="matrix(0.12345679012345677,0,0,0.12345679012345677,0,0)" xlink:href="#cu"/><use transform="matrix(0.12345679012345677,0,0,0.12345679012345677,29.629629629629626,0)" xlink:href="#cv"/><use transform="matrix(0.12345679012345677,0,0,0.12345679012345677,41.9753086419753,0)" xlink:href="#cw"/><use transform="matrix(0.12345679012345677,0,0,0.12345679012345677,66.66666666666666,0)" xlink:href="#cx"/><use transform="matrix(0.12345679012345677,0,0,0.12345679012345677,81.35802469135801,0)" xlink:href="#cy"/><use transform="matrix(0.12345679012345677,0,0,0.12345679012345677,106.04938271604937,0)" xlink:href="#co"/></g><path fill="#333" d="M179-190L93 31C79 59 56 82 12 73V49c39 6 53-20 64-50L1-190h34L92-34l54-156h33" id="cz"/><path fill="#333" d="M135-143c-3-34-86-38-87 0 15 53 115 12 119 90S17 21 10-45l28-5c4 36 97 45 98 0-10-56-113-15-118-90-4-57 82-63 122-42 12 7 21 19 24 35" id="cA"/><path fill="#333" d="M210-169c-67 3-38 105-44 169h-31v-121c0-29-5-50-35-48C34-165 62-65 56 0H25l-1-190h30c1 10-1 24 2 32 10-44 99-50 107 0 11-21 27-35 58-36 85-2 47 119 55 194h-31v-121c0-29-5-49-35-48" id="cB"/><g id="aL"><use transform="matrix(0.12345679012345677,0,0,0.12345679012345677,0,0)" xlink:href="#cu"/><use transform="matrix(0.12345679012345677,0,0,0.12345679012345677,29.629629629629626,0)" xlink:href="#cz"/><use transform="matrix(0.12345679012345677,0,0,0.12345679012345677,51.85185185185185,0)" xlink:href="#cA"/><use transform="matrix(0.12345679012345677,0,0,0.12345679012345677,74.07407407407406,0)" xlink:href="#cv"/><use transform="matrix(0.12345679012345677,0,0,0.12345679012345677,86.41975308641975,0)" xlink:href="#cy"/><use transform="matrix(0.12345679012345677,0,0,0.12345679012345677,111.1111111111111,0)" xlink:href="#cB"/></g><g id="aM"><use transform="matrix(0.06172839506172839,0,0,0.06172839506172839,0,0)" xlink:href="#cd"/><use transform="matrix(0.06172839506172839,0,0,0.06172839506172839,14.814814814814813,0)" xlink:href="#bw"/><use transform="matrix(0.06172839506172839,0,0,0.06172839506172839,27.160493827160494,0)" xlink:href="#bv"/><use transform="matrix(0.06172839506172839,0,0,0.06172839506172839,38.27160493827161,0)" xlink:href="#br"/><use transform="matrix(0.06172839506172839,0,0,0.06172839506172839,44.44444444444445,0)" xlink:href="#bM"/><use transform="matrix(0.06172839506172839,0,0,0.06172839506172839,50.61728395061729,0)" xlink:href="#bn"/><use transform="matrix(0.06172839506172839,0,0,0.06172839506172839,65,0)" xlink:href="#bo"/><use transform="matrix(0.06172839506172839,0,0,0.06172839506172839,69.87654320987654,0)" xlink:href="#bp"/><use transform="matrix(0.06172839506172839,0,0,0.06172839506172839,82.22222222222223,0)" xlink:href="#bq"/></g><g id="aN"><use transform="matrix(0.06172839506172839,0,0,0.06172839506172839,0,0)" xlink:href="#by"/><use transform="matrix(0.06172839506172839,0,0,0.06172839506172839,7.345679012345679,0)" xlink:href="#bp"/><use transform="matrix(0.06172839506172839,0,0,0.06172839506172839,19.691358024691358,0)" xlink:href="#bJ"/><use transform="matrix(0.06172839506172839,0,0,0.06172839506172839,30.80246913580247,0)" xlink:href="#bo"/><use transform="matrix(0.06172839506172839,0,0,0.06172839506172839,35.67901234567901,0)" xlink:href="#bp"/><use transform="matrix(0.06172839506172839,0,0,0.06172839506172839,48.02469135802469,0)" xlink:href="#bq"/></g><g id="aO"><use transform="matrix(0.06172839506172839,0,0,0.06172839506172839,0,0)" xlink:href="#bB"/><use transform="matrix(0.06172839506172839,0,0,0.06172839506172839,12.345679012345679,0)" xlink:href="#bY"/><use transform="matrix(0.06172839506172839,0,0,0.06172839506172839,24.691358024691358,0)" xlink:href="#bw"/><use transform="matrix(0.06172839506172839,0,0,0.06172839506172839,37.03703703703704,0)" xlink:href="#bu"/><use transform="matrix(0.06172839506172839,0,0,0.06172839506172839,49.382716049382715,0)" xlink:href="#br"/></g><use transform="matrix(0.06172839506172839,0,0,0.06172839506172839,0,0)" xlink:href="#bB" id="aP"/><g id="aQ"><use transform="matrix(0.06172839506172839,0,0,0.06172839506172839,0,0)" xlink:href="#bv"/><use transform="matrix(0.06172839506172839,0,0,0.06172839506172839,11.11111111111111,0)" xlink:href="#bs"/><use transform="matrix(0.06172839506172839,0,0,0.06172839506172839,23.45679012345679,0)" xlink:href="#bw"/><use transform="matrix(0.06172839506172839,0,0,0.06172839506172839,35.80246913580247,0)" xlink:href="#bG"/></g><g id="aR"><use transform="matrix(0.06172839506172839,0,0,0.06172839506172839,0,0)" xlink:href="#by"/><use transform="matrix(0.06172839506172839,0,0,0.06172839506172839,7.345679012345679,0)" xlink:href="#bp"/><use transform="matrix(0.06172839506172839,0,0,0.06172839506172839,19.691358024691358,0)" xlink:href="#bJ"/><use transform="matrix(0.06172839506172839,0,0,0.06172839506172839,30.80246913580247,0)" xlink:href="#bo"/><use transform="matrix(0.06172839506172839,0,0,0.06172839506172839,35.67901234567901,0)" xlink:href="#bp"/><use transform="matrix(0.06172839506172839,0,0,0.06172839506172839,48.02469135802469,0)" xlink:href="#bq"/><use transform="matrix(0.06172839506172839,0,0,0.06172839506172839,62.77777777777777,0)" xlink:href="#ca"/></g></defs></g></svg>