<svg xmlns="http://www.w3.org/2000/svg" xmlns:xlink="http://www.w3.org/1999/xlink" width="414" height="824" viewBox="0 0 414 824">
  <defs>
    <filter id="Sugandha_Store" x="124" y="84" width="205" height="48" filterUnits="userSpaceOnUse">
      <feOffset dy="3" input="SourceAlpha"/>
      <feGaussianBlur stdDeviation="3" result="blur"/>
      <feFlood flood-opacity="0.161"/>
      <feComposite operator="in" in2="blur"/>
      <feComposite in="SourceGraphic"/>
    </filter>
    <linearGradient id="linear-gradient" x1="0.5" y1="1.076" x2="0.5" y2="-0.159" gradientUnits="objectBoundingBox">
      <stop offset="0.054" stop-color="#2f0000"/>
      <stop offset="0.191" stop-color="#3f0000"/>
      <stop offset="0.286" stop-color="#450001"/>
      <stop offset="0.421" stop-color="#570204"/>
      <stop offset="0.579" stop-color="#75060a"/>
      <stop offset="0.754" stop-color="#9f0b13"/>
      <stop offset="0.941" stop-color="#d4111d"/>
      <stop offset="1" stop-color="#e71421"/>
    </linearGradient>
    <linearGradient id="linear-gradient-2" x1="0.5" y1="1.071" x2="0.5" y2="-0.1" xlink:href="#linear-gradient"/>
    <linearGradient id="linear-gradient-3" y1="0.5" x2="1" y2="0.5" gradientUnits="objectBoundingBox">
      <stop offset="0.006" stop-color="#1d1917"/>
      <stop offset="0.556" stop-color="#0e0c0b"/>
      <stop offset="1"/>
    </linearGradient>
    <linearGradient id="linear-gradient-5" y1="0.5" x2="1" y2="0.5" gradientUnits="objectBoundingBox">
      <stop offset="0" stop-color="#818386"/>
      <stop offset="0.129" stop-color="#87898c"/>
      <stop offset="0.308" stop-color="#999b9e"/>
      <stop offset="0.516" stop-color="#b6b8bb"/>
      <stop offset="0.612" stop-color="#c7c9cb"/>
    </linearGradient>
    <clipPath id="clip-purchase_list_1">
      <rect width="414" height="824"/>
    </clipPath>
  </defs>
  <g id="purchase_list_1" data-name="purchase list – 1" clip-path="url(#clip-purchase_list_1)">
    <rect width="414" height="824" fill="#fff"/>
    <g id="Backward_arrow" data-name="Backward arrow" transform="translate(16 30)">
      <path id="Path_10" data-name="Path 10" d="M8,0,6.545,1.455l5.506,5.506H0V9.039H12.052L6.545,14.545,8,16l8-8Z" transform="translate(16 16) rotate(180)" fill="#56c596" stroke="#56c596" stroke-width="1"/>
    </g>
    <g id="Cart_Item_1" data-name="Cart Item 1" transform="translate(21 247)">
      <rect id="BG" width="374" height="42" rx="4" fill="none"/>
      <g id="Counter" transform="translate(219.334 9)">
        <rect id="BG-2" data-name="BG" width="55" height="32" rx="4" transform="translate(-0.334)" fill="rgba(0,0,0,0.06)"/>
        <text id="_30kg_" data-name="30kg
" transform="translate(19.666 22)" font-size="14" font-family="SegoeUI, Segoe UI"><tspan x="0" y="0">30kg</tspan><tspan font-family="SF Pro Display"><tspan x="0" y="19"></tspan></tspan></text>
      </g>
      <text id="_100_TK" data-name="100 TK" transform="translate(326 15)" fill="#00c569" font-size="16" font-family="SegoeUI, Segoe UI"><tspan x="0" y="17">100 TK</tspan></text>
      <text id="Chinigura_Rice" data-name="Chinigura Rice" transform="translate(14 12)" font-size="16" font-family="SegoeUI, Segoe UI"><tspan x="0" y="17">Chinigura Rice</tspan></text>
    </g>
    <g id="Rectangle_595" data-name="Rectangle 595" transform="translate(21 252)" fill="none" stroke="#00c569" stroke-width="1">
      <rect width="129" height="41" stroke="none"/>
      <rect x="0.5" y="0.5" width="128" height="40" fill="none"/>
    </g>
    <g id="Rectangle_596" data-name="Rectangle 596" transform="translate(218 252)" fill="none" stroke="#00c569" stroke-width="1">
      <rect width="93" height="41" stroke="none"/>
      <rect x="0.5" y="0.5" width="92" height="40" fill="none"/>
    </g>
    <g id="Rectangle_597" data-name="Rectangle 597" transform="translate(337 252)" fill="none" stroke="#56c596" stroke-width="1">
      <rect width="67" height="41" stroke="none"/>
      <rect x="0.5" y="0.5" width="66" height="40" fill="none"/>
    </g>
    <g id="Ellipse_31" data-name="Ellipse 31" transform="translate(344 385)" fill="#56c596" stroke="#00c569" stroke-width="1">
      <ellipse cx="30" cy="27.5" rx="30" ry="27.5" stroke="none"/>
      <ellipse cx="30" cy="27.5" rx="29.5" ry="27" fill="none"/>
    </g>
    <text id="_" data-name="+" transform="translate(361 431)" fill="#fff" font-size="48" font-family="Roboto-Regular, Roboto"><tspan x="0" y="0">+</tspan></text>
    <g transform="matrix(1, 0, 0, 1, 0, 0)" filter="url(#Sugandha_Store)">
      <text id="Sugandha_Store-2" data-name="Sugandha Store" transform="translate(133 114)" fill="#010101" font-size="22" font-family="SegoeUI, Segoe UI"><tspan x="0" y="0">SUGANDHA STORE</tspan></text>
    </g>
    <g id="Group_17" data-name="Group 17" transform="translate(-5.87 -91.59)">
      <path id="Path_247" data-name="Path 247" d="M140.65,265.7c0,.389-.5.7-1.106.7H113.978c-.611,0-1.106-.315-1.106-.7l-2.581-14.94c0-.389.5-.7,1.106-.7h30.851c.611,0,1.106.315,1.106.7Z" transform="translate(-11.252 -56.703)" fill="url(#linear-gradient)"/>
      <path id="Path_251" data-name="Path 251" d="M135.007,241.289a1.9,1.9,0,0,1-1.833,1.964H98.7a1.9,1.9,0,0,1-1.833-1.964V240.26A1.9,1.9,0,0,1,98.7,238.3h34.472a1.9,1.9,0,0,1,1.833,1.964Z" transform="translate(0 -48.879)" fill="url(#linear-gradient-2)"/>
      <path id="Path_252" data-name="Path 252" d="M144.966,192.331a1.768,1.768,0,0,1-.763,2.379l-.151.08a1.767,1.767,0,0,1-2.4-.678l-5.08-9.462a1.767,1.767,0,0,1,.763-2.379l.151-.081a1.767,1.767,0,0,1,2.4.678Z" transform="translate(-33.016)" fill="url(#linear-gradient-3)"/>
      <path id="Path_253" data-name="Path 253" d="M236.366,192.331a1.768,1.768,0,0,0,.763,2.379l.151.08a1.767,1.767,0,0,0,2.4-.678l5.081-9.462a1.767,1.767,0,0,0-.763-2.379l-.151-.081a1.767,1.767,0,0,0-2.4.678Z" transform="translate(-116.439)" fill="url(#linear-gradient-3)"/>
      <path id="Path_254" data-name="Path 254" d="M245.536,244.351a.94.94,0,1,1-.94-.94A.94.94,0,0,1,245.536,244.351Z" transform="translate(-122.771 -53.129)" fill="url(#linear-gradient-5)"/>
      <path id="Path_255" data-name="Path 255" d="M173.962,244.351a.94.94,0,1,1-.94-.94A.94.94,0,0,1,173.962,244.351Z" transform="translate(-62.908 -53.129)" fill="url(#linear-gradient-5)"/>
    </g>
    <text id="u_Purchase_Listat" data-name="u   Purchase Listat" transform="translate(108 171)" fill="#fff" font-size="30" font-family="SegoeUISymbol, Segoe UI Symbol"><tspan x="0" y="0" xml:space="preserve">u   </tspan><tspan y="0" fill="#00c569" font-size="24">Purchase List</tspan><tspan y="0" font-size="24">at</tspan></text>
    <path id="Path_274" data-name="Path 274" d="M0,0H138.453" transform="translate(150 178.5)" fill="none" stroke="#00c569" stroke-width="1"/>
    <g id="Cart_Item_1-2" data-name="Cart Item 1" transform="translate(20 320)">
      <rect id="BG-3" data-name="BG" width="374" height="42" rx="4" fill="none"/>
      <g id="Counter-2" data-name="Counter" transform="translate(219.334 9)">
        <rect id="BG-4" data-name="BG" width="55" height="32" rx="4" transform="translate(-0.334)" fill="rgba(0,0,0,0.06)"/>
        <text id="_5ltr_" data-name="5ltr
" transform="translate(19.666 22)" font-size="14" font-family="SegoeUI, Segoe UI"><tspan x="0" y="0">5ltr</tspan><tspan font-family="SF Pro Display"><tspan x="0" y="19"></tspan></tspan></text>
      </g>
      <text id="_2" data-name=" " transform="translate(326 15)" fill="#00c569" font-size="16" font-family="SegoeUI, Segoe UI"><tspan x="0" y="17"> </tspan></text>
      <text id="Rupchanda_Oil" data-name="Rupchanda Oil" transform="translate(8 12)" font-size="16" font-family="SegoeUI, Segoe UI"><tspan x="0" y="17">Rupchanda Oil</tspan></text>
    </g>
    <g id="Rectangle_598" data-name="Rectangle 598" transform="translate(20 324)" fill="none" stroke="#00c569" stroke-width="1">
      <rect width="129" height="41" stroke="none"/>
      <rect x="0.5" y="0.5" width="128" height="40" fill="none"/>
    </g>
    <g id="Rectangle_599" data-name="Rectangle 599" transform="translate(218 324)" fill="none" stroke="#00c569" stroke-width="1">
      <rect width="93" height="41" stroke="none"/>
      <rect x="0.5" y="0.5" width="92" height="40" fill="none"/>
    </g>
    <g id="Rectangle_600" data-name="Rectangle 600" transform="translate(337 324)" fill="none" stroke="#56c596" stroke-width="1">
      <rect width="67" height="41" stroke="none"/>
      <rect x="0.5" y="0.5" width="66" height="40" fill="none"/>
    </g>
    <text id="Name" transform="translate(24 230)" fill="#00c569" font-size="18" font-family="ArialMT, Arial"><tspan x="0" y="0">Name</tspan></text>
    <text id="Quantity" transform="translate(218 230)" fill="#00c569" font-size="18" font-family="ArialMT, Arial"><tspan x="0" y="0">Quantity</tspan></text>
    <text id="Price" transform="translate(337 230)" fill="#00c569" font-size="18" font-family="ArialMT, Arial"><tspan x="0" y="0">Price</tspan></text>
    <path id="ic_call_end_24px" d="M12,9a14.911,14.911,0,0,0-4.6.72v3.1a1.008,1.008,0,0,1-.56.9,11.511,11.511,0,0,0-2.66,1.85.982.982,0,0,1-.7.28,1,1,0,0,1-.71-.29L.29,13.08a.956.956,0,0,1-.29-.7,1,1,0,0,1,.29-.71,17.016,17.016,0,0,1,23.42,0,1.014,1.014,0,0,1,0,1.42l-2.48,2.48a1,1,0,0,1-.71.29,1.026,1.026,0,0,1-.7-.28,11.27,11.27,0,0,0-2.67-1.85,1,1,0,0,1-.56-.9V9.73A14.516,14.516,0,0,0,12,9Z" transform="translate(263 744)" fill="#cf1b1b"/>
    <g id="Ellipse_32" data-name="Ellipse 32" transform="translate(245 728)" fill="none" stroke="#cf1b1b" stroke-width="1">
      <ellipse cx="30" cy="27.5" rx="30" ry="27.5" stroke="none"/>
      <ellipse cx="30" cy="27.5" rx="29.5" ry="27" fill="none"/>
    </g>
    <path id="ic_volume_up_24px" d="M3,9v6H7l5,5V4L7,9Zm13.5,3A4.5,4.5,0,0,0,14,7.97v8.05A4.474,4.474,0,0,0,16.5,12ZM14,3.23V5.29a7,7,0,0,1,0,13.42v2.06A8.994,8.994,0,0,0,14,3.23Z" transform="translate(196 743.77)"/>
    <g id="Ellipse_33" data-name="Ellipse 33" transform="translate(177 728)" fill="none" stroke="#00c569" stroke-width="1">
      <ellipse cx="30" cy="27.5" rx="30" ry="27.5" stroke="none"/>
      <ellipse cx="30" cy="27.5" rx="29.5" ry="27" fill="none"/>
    </g>
    <path id="ic_mic_off_24px" d="M19,11H17.3a5.114,5.114,0,0,1-.43,2.05l1.23,1.23A6.585,6.585,0,0,0,19,11Zm-4.02.17c0-.06.02-.11.02-.17V5A3,3,0,0,0,9,5v.18ZM4.27,3,3,4.27l6.01,6.01V11A2.987,2.987,0,0,0,12,14a2.821,2.821,0,0,0,.65-.08l1.66,1.66A5.5,5.5,0,0,1,12,16.1,5.189,5.189,0,0,1,6.7,11H5a6.984,6.984,0,0,0,6,6.72V21h2V17.72a7.013,7.013,0,0,0,2.54-.9L19.73,21,21,19.73Z" transform="translate(127 745)"/>
    <g id="Ellipse_34" data-name="Ellipse 34" transform="translate(109 728)" fill="none" stroke="#00c569" stroke-width="1">
      <ellipse cx="30" cy="27.5" rx="30" ry="27.5" stroke="none"/>
      <ellipse cx="30" cy="27.5" rx="29.5" ry="27" fill="none"/>
    </g>
    <path id="ic_check_24px" d="M9,16.17,4.83,12,3.41,13.41,9,19,21,7,19.59,5.59Z" transform="translate(146.59 682.41)" fill="#00c569"/>
    <g id="Rectangle_601" data-name="Rectangle 601" transform="translate(147 684)" fill="none" stroke="#707070" stroke-width="1">
      <rect width="23" height="21" stroke="none"/>
      <rect x="0.5" y="0.5" width="22" height="20" fill="none"/>
    </g>
    <text id="Confirm_Order" data-name="Confirm Order" transform="translate(174 700)" fill="#010101" font-size="14" font-family="SegoeUI, Segoe UI"><tspan x="0" y="0">Confirm Order</tspan></text>
    <path id="ic_call_24px" d="M6.62,10.79a15.149,15.149,0,0,0,6.59,6.59l2.2-2.2a.994.994,0,0,1,1.02-.24,11.407,11.407,0,0,0,3.57.57,1,1,0,0,1,1,1V20a1,1,0,0,1-1,1A17,17,0,0,1,3,4,1,1,0,0,1,4,3H7.5a1,1,0,0,1,1,1,11.36,11.36,0,0,0,.57,3.57,1,1,0,0,1-.25,1.02Z" transform="translate(181 34)"/>
    <text id="_01:_53" data-name="01: 53" transform="translate(208 52)" fill="#010101" font-size="20" font-family="SegoeUI, Segoe UI"><tspan x="0" y="0">01: 53</tspan></text>
    <path id="Path_258" data-name="Path 258" d="M258.05,286.924c0,.592-1,1.073-2.244,1.073h-.511c-1.24,0-2.245-.48-2.245-1.073v-8.188c0-.592,1.005-1.072,2.245-1.072h.511c1.24,0,2.244.48,2.244,1.072Z" transform="translate(-140.05 -172.663)" fill="url(#linear-gradient-5)"/>
    <path id="Path_276" data-name="Path 276" d="M258.05,286.924c0,.592-1,1.073-2.244,1.073h-.511c-1.24,0-2.245-.48-2.245-1.073v-8.188c0-.592,1.005-1.072,2.245-1.072h.511c1.24,0,2.244.48,2.244,1.072Z" transform="translate(-150.05 -172.663)" fill="url(#linear-gradient-5)"/>
  </g>
</svg>
