<svg xmlns="http://www.w3.org/2000/svg" xmlns:xlink="http://www.w3.org/1999/xlink" width="414" height="824" viewBox="0 0 414 824">
  <defs>
    <filter id="Sugandha_Store" x="95" y="75" width="205" height="48" filterUnits="userSpaceOnUse">
      <feOffset dy="3" input="SourceAlpha"/>
      <feGaussianBlur stdDeviation="3" result="blur"/>
      <feFlood flood-opacity="0.161"/>
      <feComposite operator="in" in2="blur"/>
      <feComposite in="SourceGraphic"/>
    </filter>
    <filter id="Rectangle_591" x="15" y="230" width="379" height="74" filterUnits="userSpaceOnUse">
      <feOffset dy="3" input="SourceAlpha"/>
      <feGaussianBlur stdDeviation="3" result="blur-2"/>
      <feFlood flood-opacity="0.161"/>
      <feComposite operator="in" in2="blur-2"/>
      <feComposite in="SourceGraphic"/>
    </filter>
    <filter id="Rectangle_592" x="15" y="310" width="379" height="74" filterUnits="userSpaceOnUse">
      <feOffset dy="3" input="SourceAlpha"/>
      <feGaussianBlur stdDeviation="3" result="blur-3"/>
      <feFlood flood-opacity="0.161"/>
      <feComposite operator="in" in2="blur-3"/>
      <feComposite in="SourceGraphic"/>
    </filter>
    <filter id="Rectangle_593" x="15" y="390" width="379" height="74" filterUnits="userSpaceOnUse">
      <feOffset dy="3" input="SourceAlpha"/>
      <feGaussianBlur stdDeviation="3" result="blur-4"/>
      <feFlood flood-opacity="0.161"/>
      <feComposite operator="in" in2="blur-4"/>
      <feComposite in="SourceGraphic"/>
    </filter>
    <clipPath id="clip-Queue_1">
      <rect width="414" height="824"/>
    </clipPath>
  </defs>
  <g id="Queue_1" data-name="Queue – 1" clip-path="url(#clip-Queue_1)">
    <rect width="414" height="824" fill="#fff"/>
    <text id="uQueueeat" transform="translate(61 179)" fill="#fff" font-size="30" font-family="SegoeUISymbol, Segoe UI Symbol"><tspan x="0" y="0">u</tspan><tspan y="0" fill="#00c569">Queue</tspan><tspan y="0">eat</tspan></text>
    <text id="Browse" transform="translate(240 182)" fill="#00c569" font-size="30" font-family="SegoeUISymbol, Segoe UI Symbol"><tspan x="0" y="0">Browse</tspan></text>
    <path id="Path_273" data-name="Path 273" d="M0,0H122V3.083H0V0Z" transform="translate(64 186.917)" fill="#00c569"/>
    <g id="Primary_Button_-_Small" data-name="Primary Button - Small" transform="translate(134 737)">
      <rect id="Button" width="146" height="50" rx="4" fill="#56c596"/>
      <text id="Next_Customer" data-name="Next Customer" transform="translate(73 30)" fill="#fff" font-size="14" font-family="SegoeUI, Segoe UI"><tspan x="-46.262" y="0">Next Customer</tspan></text>
    </g>
    <g transform="matrix(1, 0, 0, 1, 0, 0)" filter="url(#Sugandha_Store)">
      <text id="Sugandha_Store-2" data-name="Sugandha Store" transform="translate(104 105)" fill="#010101" font-size="22" font-family="SegoeUI, Segoe UI"><tspan x="0" y="0">SUGANDHA STORE</tspan></text>
    </g>
    <g transform="matrix(1, 0, 0, 1, 0, 0)" filter="url(#Rectangle_591)">
      <g id="Rectangle_591-2" data-name="Rectangle 591" transform="translate(24 236)" fill="#fff" stroke="#56c596" stroke-width="1">
        <rect width="361" height="56" stroke="none"/>
        <rect x="0.5" y="0.5" width="360" height="55" fill="none"/>
      </g>
    </g>
    <g transform="matrix(1, 0, 0, 1, 0, 0)" filter="url(#Rectangle_592)">
      <g id="Rectangle_592-2" data-name="Rectangle 592" transform="translate(24 316)" fill="#fff" stroke="#56c596" stroke-width="1">
        <rect width="361" height="56" stroke="none"/>
        <rect x="0.5" y="0.5" width="360" height="55" fill="none"/>
      </g>
    </g>
    <g transform="matrix(1, 0, 0, 1, 0, 0)" filter="url(#Rectangle_593)">
      <g id="Rectangle_593-2" data-name="Rectangle 593" transform="translate(24 396)" fill="#fff" stroke="#56c596" stroke-width="1">
        <rect width="361" height="56" stroke="none"/>
        <rect x="0.5" y="0.5" width="360" height="55" fill="none"/>
      </g>
    </g>
    <text id="Ferdous_Ziaul_Islam" data-name="Ferdous Ziaul Islam" transform="translate(76 273)" fill="#010101" font-size="20" font-family="SegoeUI, Segoe UI"><tspan x="0" y="0">Ferdous Ziaul Islam</tspan></text>
    <text id="Rifat_Islam" data-name="Rifat Islam" transform="translate(76 353)" fill="#010101" font-size="20" font-family="SegoeUI, Segoe UI"><tspan x="0" y="0">Rifat Islam</tspan></text>
    <text id="Safat_Hossain" data-name="Safat Hossain" transform="translate(76 433)" fill="#010101" font-size="20" font-family="SegoeUI, Segoe UI"><tspan x="0" y="0">Safat Hossain</tspan></text>
    <path id="ic_person_24px" d="M12,12A4,4,0,1,0,8,8,4,4,0,0,0,12,12Zm0,2c-2.67,0-8,1.34-8,4v2H20V18C20,15.34,14.67,14,12,14Z" transform="translate(33 253)" stroke="#56c596" stroke-width="1"/>
    <path id="ic_person_24px-2" data-name="ic_person_24px" d="M12,12A4,4,0,1,0,8,8,4,4,0,0,0,12,12Zm0,2c-2.67,0-8,1.34-8,4v2H20V18C20,15.34,14.67,14,12,14Z" transform="translate(33 413)" stroke="#56c596" stroke-width="1"/>
    <path id="ic_person_24px-3" data-name="ic_person_24px" d="M12,12A4,4,0,1,0,8,8,4,4,0,0,0,12,12Zm0,2c-2.67,0-8,1.34-8,4v2H20V18C20,15.34,14.67,14,12,14Z" transform="translate(33 333)" stroke="#56c596" stroke-width="1"/>
    <g id="Menu" transform="translate(-11 -7)">
      <rect id="Rectangle_175" data-name="Rectangle 175" width="24" height="24" transform="translate(35 37)" fill="#fff"/>
      <path id="Union_4" data-name="Union 4" d="M0,24V20.571H28.5V24ZM0,13.714V10.285H29v3.429ZM0,3.428V0H29V3.428Z" transform="translate(35 38)" fill="#56c596"/>
    </g>
  </g>
</svg>
