<svg xmlns="http://www.w3.org/2000/svg" xmlns:xlink="http://www.w3.org/1999/xlink" width="414" height="824" viewBox="0 0 414 824">
  <defs>
    <filter id="Rectangle_591" x="15" y="230" width="379" height="74" filterUnits="userSpaceOnUse">
      <feOffset dy="3" input="SourceAlpha"/>
      <feGaussianBlur stdDeviation="3" result="blur"/>
      <feFlood flood-opacity="0.161"/>
      <feComposite operator="in" in2="blur"/>
      <feComposite in="SourceGraphic"/>
    </filter>
    <filter id="Rectangle_592" x="15" y="310" width="379" height="74" filterUnits="userSpaceOnUse">
      <feOffset dy="3" input="SourceAlpha"/>
      <feGaussianBlur stdDeviation="3" result="blur-2"/>
      <feFlood flood-opacity="0.161"/>
      <feComposite operator="in" in2="blur-2"/>
      <feComposite in="SourceGraphic"/>
    </filter>
    <filter id="Rectangle_593" x="15" y="390" width="379" height="74" filterUnits="userSpaceOnUse">
      <feOffset dy="3" input="SourceAlpha"/>
      <feGaussianBlur stdDeviation="3" result="blur-3"/>
      <feFlood flood-opacity="0.161"/>
      <feComposite operator="in" in2="blur-3"/>
      <feComposite in="SourceGraphic"/>
    </filter>
    <filter id="Sugandha_Store" x="124" y="84" width="205" height="48" filterUnits="userSpaceOnUse">
      <feOffset dy="3" input="SourceAlpha"/>
      <feGaussianBlur stdDeviation="3" result="blur-4"/>
      <feFlood flood-opacity="0.161"/>
      <feComposite operator="in" in2="blur-4"/>
      <feComposite in="SourceGraphic"/>
    </filter>
    <linearGradient id="linear-gradient" x1="0.5" y1="1.076" x2="0.5" y2="-0.159" gradientUnits="objectBoundingBox">
      <stop offset="0.054" stop-color="#2f0000"/>
      <stop offset="0.191" stop-color="#3f0000"/>
      <stop offset="0.286" stop-color="#450001"/>
      <stop offset="0.421" stop-color="#570204"/>
      <stop offset="0.579" stop-color="#75060a"/>
      <stop offset="0.754" stop-color="#9f0b13"/>
      <stop offset="0.941" stop-color="#d4111d"/>
      <stop offset="1" stop-color="#e71421"/>
    </linearGradient>
    <linearGradient id="linear-gradient-2" x1="0.5" y1="1.071" x2="0.5" y2="-0.1" xlink:href="#linear-gradient"/>
    <linearGradient id="linear-gradient-3" y1="0.5" x2="1" y2="0.5" gradientUnits="objectBoundingBox">
      <stop offset="0.006" stop-color="#1d1917"/>
      <stop offset="0.556" stop-color="#0e0c0b"/>
      <stop offset="1"/>
    </linearGradient>
    <linearGradient id="linear-gradient-5" y1="0.5" x2="1" y2="0.5" gradientUnits="objectBoundingBox">
      <stop offset="0" stop-color="#818386"/>
      <stop offset="0.129" stop-color="#87898c"/>
      <stop offset="0.308" stop-color="#999b9e"/>
      <stop offset="0.516" stop-color="#b6b8bb"/>
      <stop offset="0.612" stop-color="#c7c9cb"/>
    </linearGradient>
    <clipPath id="clip-Queue">
      <rect width="414" height="824"/>
    </clipPath>
  </defs>
  <g id="Queue" clip-path="url(#clip-Queue)">
    <rect width="414" height="824" fill="#fff"/>
    <g id="Backward_arrow" data-name="Backward arrow" transform="translate(16 30)">
      <path id="Path_10" data-name="Path 10" d="M8,0,6.545,1.455l5.506,5.506H0V9.039H12.052L6.545,14.545,8,16l8-8Z" transform="translate(16 16) rotate(180)" fill="#56c596" stroke="#56c596" stroke-width="1"/>
    </g>
    <text id="Chatat" transform="translate(24 178)" fill="#00c569" font-size="30" font-family="SegoeUISymbol, Segoe UI Symbol"><tspan x="0" y="0">Chat</tspan><tspan y="0" fill="#fff">at</tspan></text>
    <text id="uQueueeat" transform="translate(134 182)" fill="#fff" font-size="30" font-family="SegoeUISymbol, Segoe UI Symbol"><tspan x="0" y="0">u</tspan><tspan y="0" fill="#00c569">Queue</tspan><tspan y="0">eat</tspan></text>
    <text id="Browse" transform="translate(290 182)" fill="#00c569" font-size="30" font-family="SegoeUISymbol, Segoe UI Symbol"><tspan x="0" y="0">Browse</tspan></text>
    <path id="Path_273" data-name="Path 273" d="M0,0H122V3.083H0V0Z" transform="translate(137 189.917)" fill="#00c569"/>
    <g id="Primary_Button_-_Small" data-name="Primary Button - Small" transform="translate(134 736)">
      <rect id="Button" width="146" height="50" rx="4" fill="#56c596"/>
      <text id="Enter_Shop" data-name="Enter Shop" transform="translate(73 30)" fill="#fff" font-size="14" font-family="SegoeUI, Segoe UI"><tspan x="-33.783" y="0">Enter Shop</tspan></text>
    </g>
    <g transform="matrix(1, 0, 0, 1, 0, 0)" filter="url(#Rectangle_591)">
      <g id="Rectangle_591-2" data-name="Rectangle 591" transform="translate(24 236)" fill="#fff" stroke="#56c596" stroke-width="1">
        <rect width="361" height="56" stroke="none"/>
        <rect x="0.5" y="0.5" width="360" height="55" fill="none"/>
      </g>
    </g>
    <g transform="matrix(1, 0, 0, 1, 0, 0)" filter="url(#Rectangle_592)">
      <g id="Rectangle_592-2" data-name="Rectangle 592" transform="translate(24 316)" fill="#fff" stroke="#56c596" stroke-width="1">
        <rect width="361" height="56" stroke="none"/>
        <rect x="0.5" y="0.5" width="360" height="55" fill="none"/>
      </g>
    </g>
    <g transform="matrix(1, 0, 0, 1, 0, 0)" filter="url(#Rectangle_593)">
      <g id="Rectangle_593-2" data-name="Rectangle 593" transform="translate(24 396)" fill="#fff" stroke="#56c596" stroke-width="1">
        <rect width="361" height="56" stroke="none"/>
        <rect x="0.5" y="0.5" width="360" height="55" fill="none"/>
      </g>
    </g>
    <text id="Ferdous_Ziaul_Islam" data-name="Ferdous Ziaul Islam" transform="translate(76 273)" fill="#010101" font-size="20" font-family="SegoeUI, Segoe UI"><tspan x="0" y="0">Ferdous Ziaul Islam</tspan></text>
    <text id="Rifat_Islam" data-name="Rifat Islam" transform="translate(76 353)" fill="#010101" font-size="20" font-family="SegoeUI, Segoe UI"><tspan x="0" y="0">Rifat Islam</tspan></text>
    <text id="Alif_Mohammad" data-name="Alif Mohammad" transform="translate(76 433)" fill="#010101" font-size="20" font-family="SegoeUI, Segoe UI"><tspan x="0" y="0">Alif Mohammad</tspan></text>
    <path id="ic_person_24px" d="M12,12A4,4,0,1,0,8,8,4,4,0,0,0,12,12Zm0,2c-2.67,0-8,1.34-8,4v2H20V18C20,15.34,14.67,14,12,14Z" transform="translate(33 253)" stroke="#56c596" stroke-width="1"/>
    <path id="ic_person_24px-2" data-name="ic_person_24px" d="M12,12A4,4,0,1,0,8,8,4,4,0,0,0,12,12Zm0,2c-2.67,0-8,1.34-8,4v2H20V18C20,15.34,14.67,14,12,14Z" transform="translate(33 413)" stroke="#56c596" stroke-width="1"/>
    <path id="ic_person_24px-3" data-name="ic_person_24px" d="M12,12A4,4,0,1,0,8,8,4,4,0,0,0,12,12Zm0,2c-2.67,0-8,1.34-8,4v2H20V18C20,15.34,14.67,14,12,14Z" transform="translate(33 333)" stroke="#56c596" stroke-width="1"/>
    <g transform="matrix(1, 0, 0, 1, 0, 0)" filter="url(#Sugandha_Store)">
      <text id="Sugandha_Store-2" data-name="Sugandha Store" transform="translate(133 114)" fill="#010101" font-size="22" font-family="SegoeUI, Segoe UI"><tspan x="0" y="0">SUGANDHA STORE</tspan></text>
    </g>
    <g id="Group_17" data-name="Group 17" transform="translate(-5.87 -91.59)">
      <path id="Path_247" data-name="Path 247" d="M140.65,265.7c0,.389-.5.7-1.106.7H113.978c-.611,0-1.106-.315-1.106-.7l-2.581-14.94c0-.389.5-.7,1.106-.7h30.851c.611,0,1.106.315,1.106.7Z" transform="translate(-11.252 -56.703)" fill="url(#linear-gradient)"/>
      <path id="Path_251" data-name="Path 251" d="M135.007,241.289a1.9,1.9,0,0,1-1.833,1.964H98.7a1.9,1.9,0,0,1-1.833-1.964V240.26A1.9,1.9,0,0,1,98.7,238.3h34.472a1.9,1.9,0,0,1,1.833,1.964Z" transform="translate(0 -48.879)" fill="url(#linear-gradient-2)"/>
      <path id="Path_252" data-name="Path 252" d="M144.966,192.331a1.768,1.768,0,0,1-.763,2.379l-.151.08a1.767,1.767,0,0,1-2.4-.678l-5.08-9.462a1.767,1.767,0,0,1,.763-2.379l.151-.081a1.767,1.767,0,0,1,2.4.678Z" transform="translate(-33.016)" fill="url(#linear-gradient-3)"/>
      <path id="Path_253" data-name="Path 253" d="M236.366,192.331a1.768,1.768,0,0,0,.763,2.379l.151.08a1.767,1.767,0,0,0,2.4-.678l5.081-9.462a1.767,1.767,0,0,0-.763-2.379l-.151-.081a1.767,1.767,0,0,0-2.4.678Z" transform="translate(-116.439)" fill="url(#linear-gradient-3)"/>
      <path id="Path_254" data-name="Path 254" d="M245.536,244.351a.94.94,0,1,1-.94-.94A.94.94,0,0,1,245.536,244.351Z" transform="translate(-122.771 -53.129)" fill="url(#linear-gradient-5)"/>
      <path id="Path_255" data-name="Path 255" d="M173.962,244.351a.94.94,0,1,1-.94-.94A.94.94,0,0,1,173.962,244.351Z" transform="translate(-62.908 -53.129)" fill="url(#linear-gradient-5)"/>
    </g>
    <path id="Path_256" data-name="Path 256" d="M258.05,286.924c0,.592-1,1.073-2.244,1.073h-.511c-1.24,0-2.245-.48-2.245-1.073v-8.188c0-.592,1.005-1.072,2.245-1.072h.511c1.24,0,2.244.48,2.244,1.072Z" transform="translate(-150.05 -172.663)" fill="url(#linear-gradient-5)"/>
    <path id="Path_258" data-name="Path 258" d="M258.05,286.924c0,.592-1,1.073-2.244,1.073h-.511c-1.24,0-2.245-.48-2.245-1.073v-8.188c0-.592,1.005-1.072,2.245-1.072h.511c1.24,0,2.244.48,2.244,1.072Z" transform="translate(-140.05 -172.663)" fill="url(#linear-gradient-5)"/>
  </g>
</svg>
